<svg xmlns="http://www.w3.org/2000/svg" width="550" height="300" viewBox="0 0 550 300" version="1.1"><path d="M 472 56.536 C 467.875 57.242, 455.050 58.559, 443.500 59.463 C 431.950 60.366, 419.365 61.419, 415.532 61.803 L 408.565 62.500 408.437 75.500 C 408.250 94.673, 403.736 112.500, 393.469 134.621 C 391.011 139.917, 389 144.585, 389 144.994 C 389 145.404, 394.222 143.747, 400.605 141.313 C 420.571 133.700, 450.889 127, 465.375 127 C 472.710 127, 473.587 125.732, 474.372 114 C 475.137 102.575, 479.205 76.030, 481.988 64.313 C 483.095 59.654, 484 55.653, 484 55.421 C 484 54.776, 480.240 55.125, 472 56.536 M 116 58.035 C 88.409 61.347, 69.172 76.540, 64.469 98.730 C 59.120 123.976, 68.835 144.801, 91.084 155.776 C 96.053 158.227, 107.384 162.187, 118.749 165.443 C 145.305 173.052, 149.455 175.428, 149.455 183.024 C 149.455 190.442, 142.921 194.367, 130.500 194.410 C 118.998 194.449, 110.685 188.922, 108.452 179.750 L 107.783 177 83.749 177 L 59.715 177 60.331 182.891 C 62.725 205.801, 81.584 225.473, 107.410 232.001 C 118.129 234.710, 136.869 234.723, 149.920 232.030 C 180.297 225.762, 197.911 205.396, 197.983 176.460 C 198.017 162.501, 193.270 151.127, 183.853 142.605 C 176.680 136.114, 166.834 131.227, 151.500 126.546 C 144.900 124.531, 135.225 121.568, 130 119.961 C 118.368 116.384, 114.306 113.975, 112.462 109.563 C 109.414 102.269, 115.006 96.993, 125.770 97.006 C 135.628 97.017, 142.843 100.965, 145.011 107.533 L 146.155 111 170.078 111 C 183.235 111, 194 110.622, 194 110.160 C 194 109.698, 193.131 105.921, 192.068 101.766 C 186.529 80.107, 172.013 65.502, 150.577 60.020 C 141.465 57.689, 126.184 56.812, 116 58.035 M 214 145.983 L 214 234 240.505 234 L 267.011 234 266.755 146.250 L 266.500 58.500 240.250 58.233 L 214 57.967 214 145.983 M 291 140.774 L 291 223.548 274.250 234.662 C 244.624 254.317, 226.578 263.482, 212.305 266.121 C 200.600 268.284, 194.703 263.274, 196.900 253.030 C 198.551 245.335, 201.765 238.168, 207.537 229.312 C 210.517 224.740, 212.545 221, 212.043 221 C 211.542 221, 208.605 224.488, 205.518 228.750 C 186.782 254.613, 187.763 271.258, 207.935 269.752 C 223.386 268.599, 251.184 255.211, 281 234.562 L 290.500 227.982 290.810 231.491 L 291.121 235 353.060 235 L 415 235 415 214 L 415 193 379.500 193 L 344 193 344.064 189.250 C 344.118 186.036, 344.797 184.946, 348.814 181.623 C 359.931 172.425, 386.114 148.781, 385.672 148.339 C 385.406 148.073, 377.159 154.684, 367.344 163.029 C 357.530 171.375, 348.262 179.088, 346.750 180.170 L 344 182.136 344 120.068 L 344 58 317.500 58 L 291 58 291 140.774 M 411 64.164 C 427.003 71.275, 436.428 76.674, 443.844 82.979 L 446.187 84.972 439.344 92.408 C 435.580 96.497, 425.554 107.191, 417.065 116.171 C 402.356 131.731, 402.693 131.446, 424.217 110.106 C 439.887 94.571, 447.277 87.892, 448.346 88.303 C 452.326 89.830, 465.189 109.090, 469.161 119.470 C 470.334 122.534, 471.477 124.856, 471.702 124.631 C 472.369 123.964, 466.245 108.916, 463.043 103.357 C 461.414 100.528, 457.771 95.161, 454.947 91.430 L 449.813 84.647 455.647 79.574 C 467.372 69.376, 468.269 68.021, 458.324 75.531 L 448.148 83.215 444.824 80.694 C 436.385 74.294, 418.114 64.946, 411.500 63.644 C 408.599 63.073, 408.583 63.090, 411 64.164" stroke="none" fill="#000000" fill-rule="evenodd"/></svg>