<svg xmlns="http://www.w3.org/2000/svg" width="375" height="375" viewBox="0 0 375 375" version="1.1"><path d="M 152 66 L 152 91 168.671 91 C 182.781 91, 185.624 91.254, 187.171 92.655 C 188.873 94.195, 189.127 94.195, 190.829 92.655 C 192.376 91.254, 195.219 91, 209.329 91 L 226 91 226 66 L 226 41 222.500 41 L 219 41 219 63.500 L 219 86 189 86 L 159 86 159 63.500 L 159 41 155.500 41 L 152 41 152 66 M 182.118 203.250 C 182.053 205.313, 181.662 207.006, 181.250 207.014 C 180.838 207.021, 179.522 207.290, 178.326 207.610 C 176.614 208.070, 175.809 207.531, 174.541 205.080 C 173.097 202.287, 172.703 202.088, 170.716 203.147 C 169.497 203.796, 167.077 205.459, 165.339 206.843 C 162.368 209.207, 162.272 209.484, 163.739 211.429 C 164.979 213.075, 166.172 213.430, 169.543 213.158 C 171.877 212.970, 174.675 213.291, 175.760 213.871 C 177.170 214.626, 178.626 214.590, 180.866 213.744 C 183.603 212.711, 183.985 212.115, 183.882 209.031 C 183.817 207.089, 183.420 204.150, 183 202.500 C 182.240 199.514, 182.236 199.518, 182.118 203.250 M 202.391 205.527 C 201.048 207.575, 200.051 208.001, 197.117 207.777 C 193.870 207.528, 193.469 207.769, 193.195 210.133 C 192.943 212.306, 193.440 212.958, 196.044 213.865 C 198.244 214.632, 199.784 214.651, 201.137 213.927 C 202.204 213.356, 204.972 213.026, 207.288 213.194 C 210.520 213.429, 211.885 213.036, 213.156 211.507 C 214.742 209.599, 214.619 209.378, 210.230 206.257 C 207.710 204.466, 205.288 203, 204.847 203 C 204.407 203, 203.301 204.137, 202.391 205.527 M 154.619 221.162 C 152.670 225.972, 151.833 230, 152.782 230 C 153.234 230, 154.560 227.736, 155.729 224.969 C 158.372 218.712, 158.388 218.629, 157.061 218.187 C 156.462 217.987, 155.363 219.326, 154.619 221.162 M 219.616 218.813 C 219.135 219.591, 223.655 230, 224.473 230 C 224.691 230, 223.957 227.300, 222.843 224 C 220.768 217.856, 220.486 217.404, 219.616 218.813 M 161.046 230.935 C 159.897 232.549, 159.020 234.237, 159.097 234.685 C 159.546 237.300, 158.783 239, 157.161 239 C 154.216 239, 152.746 243.421, 154.143 248.082 C 155.411 252.316, 156.194 252.652, 159.944 250.576 C 162.152 249.353, 162.561 249.444, 164.194 251.519 C 166.489 254.437, 166.462 255.272, 164 257.500 C 161.099 260.125, 161.477 261.124, 166.760 264.786 L 171.500 268.073 173.250 265.786 C 174.212 264.529, 175.489 262.914, 176.087 262.199 C 177.635 260.347, 175.403 251.665, 172.779 249.333 C 169.982 246.846, 167.049 240.204, 167.022 236.297 C 166.998 232.862, 165.173 228, 163.908 228 C 163.483 228, 162.196 229.321, 161.046 230.935 M 211.706 230.660 C 210.915 232.222, 209.944 235.284, 209.548 237.465 C 208.755 241.835, 206.832 246.025, 204.591 248.266 C 203.790 249.067, 202.460 252.308, 201.635 255.468 C 200.278 260.664, 200.289 261.538, 201.752 264.607 C 202.642 266.473, 203.900 268, 204.548 268 C 205.461 268, 211.648 263.661, 213.859 261.471 C 214.057 261.275, 213.249 259.754, 212.064 258.091 C 210.022 255.223, 209.997 254.935, 211.570 252.533 C 213.521 249.556, 213.162 249.623, 217.476 251.426 L 220.889 252.851 222.473 248.082 C 224.380 242.339, 223.784 240.331, 219.916 239.482 C 217.324 238.912, 217 238.422, 217 235.076 C 217 232.627, 216.326 230.700, 215.072 229.565 C 213.220 227.889, 213.088 227.932, 211.706 230.660" stroke="none" fill="#eb4335" fill-rule="evenodd"/><path d="M 167.500 41.444 C 163.868 43.653, 163.293 43.742, 161.250 42.415 L 159 40.954 159 63.477 L 159 86 189 86 L 219 86 219 63.845 C 219 42.139, 218.961 41.725, 217.099 43.410 C 215.836 44.554, 214.975 44.768, 214.531 44.051 C 213.082 41.706, 205.929 39, 201.179 39 C 197.626 39, 195.285 39.674, 192.662 41.455 L 189.045 43.909 184.772 41.467 C 179.073 38.208, 172.832 38.200, 167.500 41.444 M 169.706 42.376 L 165.500 44.500 165.227 62.211 L 164.954 79.923 169.227 77.983 C 174.621 75.535, 177.396 75.543, 182.859 78.022 C 185.257 79.110, 187.394 80, 187.609 80 C 187.824 80, 188 72.134, 188 62.520 L 188 45.041 184.002 43.001 C 178.286 40.085, 174.565 39.922, 169.706 42.376 M 195 42.188 L 190.500 44.500 190.227 62.282 L 189.954 80.064 193.937 78.032 C 198.897 75.502, 203.267 75.484, 208.750 77.973 L 213 79.902 213 62.519 L 213 45.136 209.953 42.967 C 205.372 39.705, 200.342 39.443, 195 42.188 M 174.264 47.718 C 175.784 47.947, 178.034 47.941, 179.264 47.704 C 180.494 47.467, 179.250 47.279, 176.500 47.286 C 173.750 47.294, 172.744 47.488, 174.264 47.718 M 197.269 47.693 C 198.242 47.947, 199.592 47.930, 200.269 47.656 C 200.946 47.382, 200.150 47.175, 198.500 47.195 C 196.850 47.215, 196.296 47.439, 197.269 47.693 M 175.750 52.662 C 176.438 52.940, 177.563 52.940, 178.250 52.662 C 178.938 52.385, 178.375 52.158, 177 52.158 C 175.625 52.158, 175.063 52.385, 175.750 52.662 M 182 54 C 182.825 54.533, 183.950 54.969, 184.500 54.969 C 185.050 54.969, 184.825 54.533, 184 54 C 183.175 53.467, 182.050 53.031, 181.500 53.031 C 180.950 53.031, 181.175 53.467, 182 54 M 205.500 54 C 208.249 55.181, 209.828 55.181, 208 54 C 207.175 53.467, 205.825 53.055, 205 53.086 C 204.011 53.122, 204.181 53.433, 205.500 54 M 174.750 59.706 C 175.988 59.944, 178.012 59.944, 179.250 59.706 C 180.488 59.467, 179.475 59.272, 177 59.272 C 174.525 59.272, 173.512 59.467, 174.750 59.706 M 195 60.046 C 193.905 60.787, 194.309 60.880, 196.500 60.390 C 200.177 59.567, 200.975 58.995, 198.417 59.015 C 197.363 59.024, 195.825 59.487, 195 60.046 M 201.750 59.662 C 202.438 59.940, 203.563 59.940, 204.250 59.662 C 204.938 59.385, 204.375 59.158, 203 59.158 C 201.625 59.158, 201.063 59.385, 201.750 59.662 M 183 61 C 183.825 61.533, 184.950 61.969, 185.500 61.969 C 186.050 61.969, 185.825 61.533, 185 61 C 184.175 60.467, 183.050 60.031, 182.500 60.031 C 181.950 60.031, 182.175 60.467, 183 61 M 175.250 71.689 C 176.213 71.941, 177.787 71.941, 178.750 71.689 C 179.713 71.438, 178.925 71.232, 177 71.232 C 175.075 71.232, 174.287 71.438, 175.250 71.689 M 199.250 71.689 C 200.213 71.941, 201.787 71.941, 202.750 71.689 C 203.713 71.438, 202.925 71.232, 201 71.232 C 199.075 71.232, 198.287 71.438, 199.250 71.689 M 182.500 73 C 185.249 74.181, 186.828 74.181, 185 73 C 184.175 72.467, 182.825 72.055, 182 72.086 C 181.011 72.122, 181.181 72.433, 182.500 73 M 197.299 78.199 C 190.950 79.851, 192.732 81, 201.641 81 C 208.104 81, 210.107 80.707, 209.280 79.880 C 207.595 78.195, 200.917 77.258, 197.299 78.199 M 170.250 79.031 C 166.401 80.578, 167.712 81.001, 176.250 80.968 C 183.722 80.939, 184.317 80.798, 182.559 79.468 C 180.422 77.852, 173.772 77.616, 170.250 79.031 M 99 97 L 99 100 143 100 C 171.623 100, 187 100.349, 187 100.999 C 187 101.548, 172.304 121.685, 154.343 145.749 C 108.623 207, 108.613 207.013, 109.662 208.062 C 110.227 208.627, 125.814 188.585, 149.799 156.451 L 189.012 103.917 227.343 155.154 C 248.426 183.335, 266.198 206.566, 266.837 206.779 C 267.477 206.992, 268 206.679, 268 206.083 C 268 205.486, 250.675 181.804, 229.500 153.455 C 208.325 125.106, 191 101.481, 191 100.955 C 191 100.363, 207.519 100, 234.500 100 L 278 100 278 97 L 278 94 188.500 94 L 99 94 99 97 M 121.250 106.662 C 120.563 106.940, 120 108.379, 120 109.861 C 120 113.239, 117.441 117, 115.143 117 C 112.791 117, 111 118.946, 111 121.500 C 111 124.016, 112.783 126, 115.045 126 C 115.950 126, 117.423 126.809, 118.318 127.799 C 119.645 129.265, 119.997 132.450, 120.223 145.049 L 120.500 160.500 123.757 160.814 C 126 161.030, 127.201 160.641, 127.614 159.564 C 128.064 158.390, 129.684 158, 134.107 158 L 140 158 140 150 L 140 142 134 142 L 128 142 128 135.655 C 128 128.995, 129.660 126, 133.350 126 C 134.281 126, 135.530 124.932, 136.124 123.626 C 137.464 120.685, 135.794 117, 133.120 117 C 130.630 117, 128 113.852, 128 110.871 C 128 106.882, 125.134 105.095, 121.250 106.662 M 243.284 113.463 L 239.089 120.781 229.937 121.505 L 220.785 122.229 227.077 128.577 L 233.368 134.925 231.694 142.639 C 230.773 146.882, 230.136 150.469, 230.278 150.611 C 230.420 150.753, 234.061 149.337, 238.368 147.464 L 246.200 144.058 253.649 148.146 C 257.746 150.395, 261.253 152.069, 261.441 151.867 C 261.630 151.665, 261.409 149.250, 260.952 146.500 C 259.232 136.173, 259.415 135.592, 266 130.419 C 269.300 127.826, 272 125.387, 272 124.998 C 272 124.610, 268.288 123.664, 263.750 122.896 L 255.500 121.500 251.720 114.054 C 249.642 109.958, 247.837 106.503, 247.710 106.376 C 247.582 106.249, 245.591 109.438, 243.284 113.463 M 122 110.695 C 122 113.820, 117.517 119, 114.813 119 C 113.546 119, 113 119.753, 113 121.500 C 113 123.456, 113.510 124, 115.345 124 C 120.288 124, 121 126.355, 121 142.706 C 121 154.662, 121.299 158.004, 122.456 158.964 C 124.279 160.476, 126 159.494, 126 156.941 C 126 154.764, 127.978 154.378, 129.800 156.200 C 130.733 157.133, 131 157.022, 131 155.700 C 131 154.667, 131.784 154, 133 154 C 134.100 154, 135 154.450, 135 155 C 135 155.550, 135.675 156, 136.500 156 C 137.433 156, 138 155.056, 138 153.500 C 138 151.310, 137.567 151, 134.500 151 C 132.056 151, 131 150.548, 131 149.500 C 131 148.452, 132.056 148, 134.500 148 C 137.567 148, 138 147.690, 138 145.500 C 138 143.030, 135.532 141.905, 134.817 144.049 C 134.598 144.707, 132.889 144.846, 130.234 144.421 L 126 143.744 126 136.047 C 126 129.345, 126.291 128.080, 128.250 126.274 C 129.488 125.133, 131.400 124.036, 132.500 123.836 C 133.701 123.618, 134.500 122.685, 134.500 121.500 C 134.500 120.315, 133.701 119.382, 132.500 119.164 C 128.989 118.526, 126 114.922, 126 111.326 C 126 108.667, 125.599 108, 124 108 C 122.495 108, 122 108.667, 122 110.695 M 243.969 115.912 C 240.276 122.284, 239.115 122.965, 231.917 122.986 C 229.396 122.994, 227.022 123.311, 226.642 123.691 C 226.262 124.071, 228.078 126.541, 230.678 129.181 L 235.404 133.979 234.202 139.800 C 233.541 143.001, 233 146.137, 233 146.768 C 233 147.449, 235.703 146.704, 239.634 144.940 L 246.268 141.964 252.756 145.530 L 259.244 149.096 258.570 141.798 L 257.897 134.500 262.948 130.520 C 265.727 128.331, 268 126.244, 268 125.883 C 268 125.522, 265.863 124.919, 263.250 124.542 C 254.297 123.250, 254.084 123.111, 250.672 116.344 L 247.438 109.928 243.969 115.912 M 120.800 119.404 C 119.166 121.653, 119.195 121.835, 121.557 124.053 L 124.014 126.362 126.007 124.223 C 128.427 121.625, 128.432 121.528, 126.278 119.011 C 124.067 116.429, 122.900 116.513, 120.800 119.404 M 121.575 120.059 C 119.873 121.775, 119.844 122, 121.325 122 C 122.246 122, 123 122.675, 123 123.500 C 123 124.325, 123.450 125, 124 125 C 124.550 125, 125 124.325, 125 123.500 C 125 122.675, 125.454 122, 126.008 122 C 126.606 122, 126.508 121.186, 125.768 120 C 124.261 117.586, 124.025 117.590, 121.575 120.059 M 156.585 193.079 C 139.156 215.644, 124.646 234.758, 124.341 235.553 C 124.022 236.386, 124.362 236.981, 125.143 236.955 C 125.889 236.930, 131.632 230.174, 137.905 221.941 C 150.737 205.100, 149.814 205.475, 155.885 214.640 L 158.728 218.932 156.294 223.850 C 153.617 229.259, 151.120 241.484, 152.439 242.719 C 152.898 243.148, 153.492 242.887, 153.758 242.138 C 154.601 239.764, 162.490 228.670, 163.598 228.301 C 164.769 227.910, 170.811 240.190, 173.954 249.349 C 175.506 253.875, 179 269.286, 179 271.610 C 179 271.825, 183.500 272, 189 272 L 199 272 199 269.128 C 199 263.509, 203.969 246.797, 208.456 237.324 C 212.999 227.735, 213.021 227.709, 215.085 229.577 C 216.224 230.608, 218.770 234.066, 220.742 237.261 C 222.715 240.457, 224.675 242.718, 225.098 242.286 C 226.282 241.076, 223.678 229.031, 221.065 223.634 L 218.731 218.813 222.689 213.215 C 224.866 210.137, 227.064 207.489, 227.574 207.332 C 228.083 207.174, 233.661 213.751, 239.968 221.947 C 246.275 230.143, 251.819 236.612, 252.286 236.323 C 252.754 236.034, 252.904 235.192, 252.620 234.451 C 252.012 232.867, 190.277 153.289, 189.084 152.552 C 188.638 152.276, 174.013 170.513, 156.585 193.079 M 186.405 158.856 C 170.529 178.894, 151.031 205.241, 151.507 206.012 C 151.843 206.555, 152.660 207, 153.322 207 C 153.985 207, 156.771 208.503, 159.513 210.341 C 163.544 213.041, 165.218 213.595, 168.247 213.232 C 173.951 212.547, 177.082 213.756, 181.223 218.241 L 185 222.333 185 219.239 C 185 212.610, 182.740 200.228, 180.521 194.700 L 178.192 188.901 180.567 183.200 C 181.872 180.065, 184.106 173.563, 185.531 168.750 C 186.955 163.938, 188.431 160.002, 188.811 160.004 C 189.190 160.006, 190.808 164.569, 192.407 170.145 C 194.006 175.721, 196.287 182.203, 197.476 184.551 C 199.617 188.782, 199.620 188.851, 197.746 192.503 C 195.178 197.510, 193.038 208.131, 193.017 215.982 L 193 222.464 195.435 218.880 C 198.482 214.396, 202.682 212.591, 208.535 213.251 C 211.874 213.627, 213.614 213.308, 215.269 212.016 C 216.496 211.057, 219.670 209.174, 222.323 207.832 L 227.145 205.391 208.957 181.945 C 198.954 169.050, 190.258 157.985, 189.635 157.356 C 188.785 156.498, 187.975 156.874, 186.405 158.856 M 186.667 171.314 C 185.690 174.725, 183.841 180.098, 182.559 183.253 L 180.228 188.989 182.776 195.244 C 184.934 200.540, 185.397 203.534, 185.793 214.750 C 186.269 228.231, 185.509 231.061, 183.158 224.559 C 181.317 219.468, 176.924 215.264, 172.596 214.452 C 167.464 213.489, 165.873 215.171, 168.883 218.376 C 170.125 219.697, 172.358 221.022, 173.847 221.319 C 177.698 222.090, 180.625 227.911, 182.464 238.453 C 185.318 254.819, 184.053 255.288, 178.153 240.050 C 173.143 227.106, 167.506 218.242, 161.250 213.465 C 158.754 211.559, 156.342 210, 155.890 210 C 155.437 210, 157.011 212.813, 159.388 216.250 C 169.314 230.609, 175.834 245.355, 178.835 260.233 L 180.705 269.500 188.756 269.789 L 196.806 270.078 198.028 262.789 C 200.380 248.756, 206.817 233.317, 216.599 218.250 C 219.545 213.713, 221.551 210, 221.058 210 C 219.230 210, 208.838 220.420, 206.214 224.883 C 204.722 227.422, 201.630 234.211, 199.344 239.969 C 194.815 251.374, 192.892 253.682, 193.650 246.804 C 195.272 232.075, 199.270 221.834, 203.647 221.199 C 204.789 221.033, 206.954 219.614, 208.456 218.046 C 211.141 215.244, 211.151 215.183, 209.071 214.523 C 203.743 212.832, 197.588 216.952, 194.540 224.250 C 191.595 231.299, 190.669 228.908, 191.248 215.750 C 191.651 206.577, 192.344 201.993, 194.006 197.500 C 195.227 194.200, 196.213 190.375, 196.197 189 C 196.175 187.008, 189.569 166.236, 188.673 165.340 C 188.547 165.214, 187.644 167.902, 186.667 171.314 M 157.680 224.544 C 155.873 228.334, 153.677 236.824, 154.879 235.371 C 162.351 226.345, 163.063 225.074, 161.793 223.040 C 160.068 220.278, 159.640 220.434, 157.680 224.544 M 216.200 222.200 C 214.412 223.988, 214.633 224.647, 219.105 230.827 C 223.106 236.357, 223.192 236.412, 222.504 233 C 221.799 229.510, 218.433 221, 217.756 221 C 217.560 221, 216.860 221.540, 216.200 222.200 M 174.035 226.045 C 175.292 228.495, 177.354 232.975, 178.618 236 C 181.555 243.030, 181.624 239.512, 178.715 231.090 C 177.331 227.085, 175.609 224.100, 174.125 223.135 L 171.750 221.590 174.035 226.045 M 202.204 224.282 C 199.935 226.698, 197.709 232.236, 196.691 238 C 196.276 240.349, 197.542 238.406, 200.543 232.090 C 203.002 226.915, 204.863 222.529, 204.678 222.344 C 204.493 222.159, 203.380 223.031, 202.204 224.282" stroke="none" fill="#000000" fill-rule="evenodd"/><path d="M 152 66 L 152 91 168.671 91 C 182.781 91, 185.624 91.254, 187.171 92.655 C 188.873 94.195, 189.127 94.195, 190.829 92.655 C 192.376 91.254, 195.219 91, 209.329 91 L 226 91 226 66 L 226 41 222.500 41 L 219 41 219 63.500 L 219 86 189 86 L 159 86 159 63.500 L 159 41 155.500 41 L 152 41 152 66 M 182.118 203.250 C 182.053 205.313, 181.662 207.006, 181.250 207.014 C 180.838 207.021, 179.522 207.290, 178.326 207.610 C 176.614 208.070, 175.809 207.531, 174.541 205.080 C 173.097 202.287, 172.703 202.088, 170.716 203.147 C 169.497 203.796, 167.077 205.459, 165.339 206.843 C 162.368 209.207, 162.272 209.484, 163.739 211.429 C 164.979 213.075, 166.172 213.430, 169.543 213.158 C 171.877 212.970, 174.675 213.291, 175.760 213.871 C 177.170 214.626, 178.626 214.590, 180.866 213.744 C 183.603 212.711, 183.985 212.115, 183.882 209.031 C 183.817 207.089, 183.420 204.150, 183 202.500 C 182.240 199.514, 182.236 199.518, 182.118 203.250 M 202.391 205.527 C 201.048 207.575, 200.051 208.001, 197.117 207.777 C 193.870 207.528, 193.469 207.769, 193.195 210.133 C 192.943 212.306, 193.440 212.958, 196.044 213.865 C 198.244 214.632, 199.784 214.651, 201.137 213.927 C 202.204 213.356, 204.972 213.026, 207.288 213.194 C 210.520 213.429, 211.885 213.036, 213.156 211.507 C 214.742 209.599, 214.619 209.378, 210.230 206.257 C 207.710 204.466, 205.288 203, 204.847 203 C 204.407 203, 203.301 204.137, 202.391 205.527 M 154.619 221.162 C 152.670 225.972, 151.833 230, 152.782 230 C 153.234 230, 154.560 227.736, 155.729 224.969 C 158.372 218.712, 158.388 218.629, 157.061 218.187 C 156.462 217.987, 155.363 219.326, 154.619 221.162 M 219.616 218.813 C 219.135 219.591, 223.655 230, 224.473 230 C 224.691 230, 223.957 227.300, 222.843 224 C 220.768 217.856, 220.486 217.404, 219.616 218.813 M 161.046 230.935 C 159.897 232.549, 159.020 234.237, 159.097 234.685 C 159.546 237.300, 158.783 239, 157.161 239 C 154.216 239, 152.746 243.421, 154.143 248.082 C 155.411 252.316, 156.194 252.652, 159.944 250.576 C 162.152 249.353, 162.561 249.444, 164.194 251.519 C 166.489 254.437, 166.462 255.272, 164 257.500 C 161.099 260.125, 161.477 261.124, 166.760 264.786 L 171.500 268.073 173.250 265.786 C 174.212 264.529, 175.489 262.914, 176.087 262.199 C 177.635 260.347, 175.403 251.665, 172.779 249.333 C 169.982 246.846, 167.049 240.204, 167.022 236.297 C 166.998 232.862, 165.173 228, 163.908 228 C 163.483 228, 162.196 229.321, 161.046 230.935 M 211.706 230.660 C 210.915 232.222, 209.944 235.284, 209.548 237.465 C 208.755 241.835, 206.832 246.025, 204.591 248.266 C 203.790 249.067, 202.460 252.308, 201.635 255.468 C 200.278 260.664, 200.289 261.538, 201.752 264.607 C 202.642 266.473, 203.900 268, 204.548 268 C 205.461 268, 211.648 263.661, 213.859 261.471 C 214.057 261.275, 213.249 259.754, 212.064 258.091 C 210.022 255.223, 209.997 254.935, 211.570 252.533 C 213.521 249.556, 213.162 249.623, 217.476 251.426 L 220.889 252.851 222.473 248.082 C 224.380 242.339, 223.784 240.331, 219.916 239.482 C 217.324 238.912, 217 238.422, 217 235.076 C 217 232.627, 216.326 230.700, 215.072 229.565 C 213.220 227.889, 213.088 227.932, 211.706 230.660" stroke="none" fill="#eb4335" fill-rule="evenodd"/><path d="M 95.262 99.750 C 95.612 171.944, 95.667 173.711, 97.871 183.500 C 104.847 214.492, 116.733 236.842, 136.961 257.005 C 142.757 262.783, 151.325 270.060, 156 273.177 C 164.812 279.052, 182.553 288.358, 187.110 289.495 C 190.650 290.379, 206.195 283.066, 219.426 274.292 C 231.685 266.163, 249.544 248.752, 256.849 237.807 C 267.047 222.529, 274.485 204.839, 279.264 184.500 C 281.299 175.841, 281.392 172.669, 281.737 100.750 L 282.094 26 188.499 26 L 94.904 26 95.262 99.750 M 196.684 39.449 C 194.585 40.197, 192.022 41.575, 190.988 42.511 C 189.210 44.120, 188.933 44.089, 185.895 41.925 C 183.860 40.476, 180.742 39.477, 177.385 39.199 C 173 38.835, 171.327 39.205, 167.681 41.341 C 163.765 43.636, 163.067 43.764, 161.388 42.493 C 160.350 41.707, 157.813 41.049, 155.750 41.032 L 152 41 152 66 L 152 91 168.878 91 C 182.660 91, 185.983 91.275, 187 92.500 C 188.103 93.830, 183.163 94, 143.531 94 L 98.817 94 99.251 131.750 C 99.600 162.110, 100.030 171.360, 101.445 179 C 103.169 188.308, 108.506 206.758, 109.909 208.259 C 110.299 208.677, 128.086 185.614, 149.435 157.009 C 170.785 128.404, 188.608 105, 189.043 105 C 189.478 105, 207.111 128.142, 228.228 156.426 C 251.687 187.848, 267.053 207.586, 267.730 207.167 C 269.417 206.124, 274.597 187.685, 276.353 176.470 C 277.521 169.012, 277.961 157.429, 278.099 130.500 L 278.285 94.500 234.029 94.240 C 194.961 94.010, 189.917 93.804, 191.009 92.490 C 192.014 91.278, 195.393 91, 209.122 91 L 226 91 226 66 L 226 41 222.655 41 C 220.603 41, 218.624 41.757, 217.536 42.960 C 215.779 44.902, 215.733 44.899, 212.631 42.558 C 210.060 40.619, 203.030 37.894, 201 38.049 C 200.725 38.071, 198.783 38.700, 196.684 39.449 M 200.269 40.693 C 201.242 40.947, 202.592 40.930, 203.269 40.656 C 203.946 40.382, 203.150 40.175, 201.500 40.195 C 199.850 40.215, 199.296 40.439, 200.269 40.693 M 190.443 45.288 C 190.171 45.997, 190.074 53.985, 190.227 63.038 L 190.507 79.500 191.003 61.749 C 191.276 51.986, 191.373 43.998, 191.219 43.999 C 191.064 43.999, 190.715 44.580, 190.443 45.288 M 172.500 53 C 172.840 53.550, 173.568 54, 174.118 54 C 174.668 54, 174.840 53.550, 174.500 53 C 174.160 52.450, 173.432 52, 172.882 52 C 172.332 52, 172.160 52.450, 172.500 53 M 196.500 53 C 196.840 53.550, 197.568 54, 198.118 54 C 198.668 54, 198.840 53.550, 198.500 53 C 198.160 52.450, 197.432 52, 196.882 52 C 196.332 52, 196.160 52.450, 196.500 53 M 174.500 65 C 174.840 65.550, 175.965 66, 177 66 C 178.035 66, 179.160 65.550, 179.500 65 C 179.862 64.415, 178.824 64, 177 64 C 175.176 64, 174.138 64.415, 174.500 65 M 198.500 65 C 198.840 65.550, 199.965 66, 201 66 C 202.035 66, 203.160 65.550, 203.500 65 C 203.862 64.415, 202.824 64, 201 64 C 199.176 64, 198.138 64.415, 198.500 65 M 122 110.622 C 122 113.820, 117.556 119, 114.813 119 C 113.546 119, 113 119.753, 113 121.500 C 113 123.456, 113.510 124, 115.345 124 C 116.635 124, 118.547 124.945, 119.595 126.101 C 121.245 127.921, 121.567 130.297, 122 143.851 C 122.416 156.872, 122.752 159.500, 124 159.500 C 124.825 159.500, 125.649 158.448, 125.831 157.162 C 126.104 155.237, 126.590 154.931, 128.581 155.431 C 129.954 155.776, 131 155.598, 131 155.019 C 131 154.459, 131.900 154, 133 154 C 134.100 154, 135 154.450, 135 155 C 135 155.550, 135.675 156, 136.500 156 C 137.433 156, 138 155.056, 138 153.500 C 138 151.310, 137.567 151, 134.500 151 C 131.667 151, 131 150.619, 131 149 C 131 147.381, 131.667 147, 134.500 147 C 136.944 147, 138 146.548, 138 145.500 C 138 143.700, 135.869 143.531, 134.200 145.200 C 133.267 146.133, 132.733 146.133, 131.800 145.200 C 131.140 144.540, 129.565 144, 128.300 144 C 126.096 144, 126 143.674, 126 136.174 C 126 129.340, 126.285 128.086, 128.250 126.274 C 129.488 125.133, 131.400 124.036, 132.500 123.836 C 135.267 123.333, 135.165 119.595, 132.374 119.197 C 129.390 118.771, 126.221 115.048, 125.830 111.509 C 125.380 107.432, 122 106.650, 122 110.622 M 243.710 116.564 L 239.920 123 234.710 123.070 C 225.666 123.192, 225.264 123.850, 230.865 129.367 L 235.767 134.196 234.396 139.348 C 232.035 148.213, 232.100 148.283, 239.558 144.901 L 246.116 141.928 252.558 145.348 L 259 148.769 258.956 146.135 C 258.932 144.686, 258.543 141.589, 258.091 139.252 L 257.269 135.005 262.587 130.752 C 265.512 128.414, 267.927 126.214, 267.953 125.865 C 267.979 125.516, 265.454 124.912, 262.343 124.524 C 254.370 123.527, 254.256 123.448, 250.700 116.438 L 247.500 110.127 243.710 116.564 M 120.750 118.893 C 118.519 121.156, 118.549 121.549, 121.150 124.150 C 123.427 126.427, 125.339 125.995, 127.391 122.742 C 128.156 121.529, 127.944 120.595, 126.553 119.059 C 124.311 116.582, 123.065 116.546, 120.750 118.893 M 156.802 192.750 C 139.523 215.162, 125.041 234.071, 124.621 234.769 C 122.702 237.962, 145.579 261.467, 160.047 271.168 C 168.358 276.740, 186.174 286, 188.584 286 C 190.632 286, 202.017 280.573, 210.430 275.585 C 225.952 266.385, 241.151 252.817, 250.936 239.427 L 253.913 235.354 221.706 193.732 C 203.993 170.840, 189.212 152.086, 188.860 152.055 C 188.508 152.025, 174.082 170.338, 156.802 192.750 M 186.683 171.258 C 185.697 174.701, 183.841 180.098, 182.559 183.253 L 180.228 188.989 182.604 194.871 C 186.408 204.288, 188.288 228.198, 185.205 227.941 C 184.817 227.909, 183.375 225.590, 182 222.787 C 179.137 216.951, 173.738 213.347, 169.465 214.420 C 167.313 214.959, 167.109 215.335, 168.028 217.053 C 168.618 218.155, 170.806 219.739, 172.891 220.573 C 175.375 221.567, 177.397 223.367, 178.756 225.795 C 182.083 231.740, 185.476 251, 183.196 251 C 182.754 251, 180.514 246.162, 178.218 240.250 C 173.125 227.135, 167.240 217.920, 161.125 213.482 C 158.595 211.645, 156.383 210.284, 156.210 210.457 C 156.037 210.630, 158.339 214.535, 161.326 219.136 C 171.201 234.345, 178.199 251.336, 179.641 263.599 L 180.275 269 188.535 269 L 196.795 269 197.917 262.555 C 200.350 248.582, 206.741 233.430, 216.612 218.229 C 221.579 210.580, 221.773 210.066, 219.190 211.402 C 215.512 213.304, 208.998 220.441, 205.513 226.388 C 203.978 229.006, 201.043 235.484, 198.990 240.782 C 194.636 252.018, 192.582 253.928, 193.538 245.849 C 194.461 238.058, 196.812 229.012, 198.819 225.532 C 199.781 223.865, 202.100 221.728, 203.972 220.784 C 205.845 219.840, 208.265 218.179, 209.351 217.094 C 211.316 215.128, 211.313 215.117, 208.643 214.447 C 203.406 213.132, 197.455 217.273, 194.534 224.264 C 191.613 231.256, 190.694 228.889, 191.228 215.750 C 191.621 206.058, 192.277 201.874, 194.369 195.712 C 196.747 188.704, 196.872 187.652, 195.613 185.212 C 194.844 183.720, 192.988 178.563, 191.489 173.750 C 189.991 168.938, 188.699 165, 188.620 165 C 188.540 165, 187.668 167.816, 186.683 171.258 M 157.695 224.750 C 156.810 226.813, 155.644 230.300, 155.104 232.500 C 154.133 236.458, 154.141 236.474, 155.811 234.024 C 156.740 232.662, 158.677 230.187, 160.114 228.524 C 162.264 226.038, 162.548 225.100, 161.712 223.250 C 160.303 220.134, 159.555 220.414, 157.695 224.750 M 215.992 223.016 C 215.088 224.704, 215.587 225.963, 219.061 230.766 C 223.093 236.339, 223.190 236.402, 222.504 233 C 221.717 229.100, 218.401 221, 217.591 221 C 217.305 221, 216.585 221.907, 215.992 223.016 M 85.750 231.614 C 82.546 233.303, 82.627 232.988, 82.556 244 C 82.499 252.608, 81.239 256.717, 76.361 264.195 C 74.871 266.480, 74.798 267.254, 75.880 269.276 C 77.420 272.153, 81.976 275, 85.040 275 C 87.140 275, 87.228 275.281, 86.529 279.750 C 85.172 288.431, 84.920 287.956, 92.500 290.987 C 112.675 299.054, 125.578 308.734, 142.483 328.486 C 153.356 341.189, 159.914 345.503, 173.846 349.116 C 183.230 351.550, 191.305 351.694, 200.500 349.591 C 216.567 345.917, 222.086 342.083, 238.249 323.372 C 251.389 308.159, 262.480 300.006, 280.489 292.322 C 288.061 289.092, 290.465 287.618, 290.357 286.276 C 290.278 285.299, 289.879 282.363, 289.471 279.750 C 288.745 275.110, 288.789 275, 291.329 275 C 294.253 275, 301 269.628, 301 267.301 C 301 266.480, 300.063 264.492, 298.917 262.883 C 294.986 257.362, 292.781 249.198, 293.514 242.880 C 294.340 235.761, 293.621 233.373, 290.106 231.555 C 285.347 229.094, 276.929 232.238, 277.024 236.441 C 277.037 237.024, 277.437 239.174, 277.912 241.220 C 278.994 245.881, 278.633 246.190, 268.180 249.562 C 258.198 252.782, 257.244 254.043, 258.966 261.741 C 259.633 264.719, 260.026 267.292, 259.839 267.459 C 259.653 267.626, 256.575 269.229, 253 271.021 C 242.092 276.488, 232.909 283.351, 224 292.693 C 219.325 297.595, 212.442 304.820, 208.704 308.748 C 198.981 318.967, 190.647 321.904, 181.016 318.505 C 174.736 316.290, 170.330 312.642, 159.968 301.080 C 145.305 284.719, 138.425 279.022, 124.906 272.050 C 120.283 269.665, 116.378 267.619, 116.229 267.503 C 116.080 267.387, 116.466 264.924, 117.087 262.030 C 118.781 254.132, 117.775 252.773, 107.877 249.580 C 97.242 246.150, 97.002 245.936, 98.144 240.856 C 99.639 234.202, 98.173 231.966, 91.500 230.723 C 89.757 230.398, 87.348 230.772, 85.750 231.614 M 217.195 235.500 C 217.215 237.150, 217.439 237.704, 217.693 236.731 C 217.947 235.758, 217.930 234.408, 217.656 233.731 C 217.382 233.054, 217.175 233.850, 217.195 235.500 M 85.676 235.805 C 80.363 241.676, 87.150 248.322, 104.174 253.919 C 115.780 257.734, 115.065 261, 102.625 261 C 91.578 261, 93.056 264.733, 106 269.523 C 125.550 276.757, 137.328 285.209, 154 303.967 C 164.373 315.638, 166.568 317.537, 173.979 321.252 C 179.573 324.056, 181.489 324.500, 188 324.500 C 194.492 324.500, 196.464 324.046, 202.158 321.243 C 206.353 319.178, 210.783 315.884, 214.263 312.243 C 217.282 309.084, 223.520 302.521, 228.126 297.657 C 241.666 283.358, 255.429 274.214, 271.134 269.082 C 277.863 266.883, 281.733 263.995, 280.539 262.063 C 280.178 261.478, 276.954 261, 273.375 261 C 260.935 261, 260.221 257.735, 271.826 253.917 C 285.580 249.393, 292 244.927, 292 239.883 C 292 236.480, 289.126 233.178, 287.896 235.168 C 287.449 235.891, 287.515 236.915, 288.042 237.442 C 292.018 241.418, 284.464 246.872, 267.240 252.461 C 256.109 256.072, 258.529 263.947, 270.797 264.033 L 275.500 264.066 266.858 267.355 C 251.253 273.293, 238.784 281.812, 226.533 294.906 C 204.040 318.946, 200.433 321.429, 188 321.429 C 175.411 321.429, 173.668 320.218, 148.968 294.308 C 136.326 281.047, 124.220 272.947, 108 266.895 L 100.500 264.097 105.615 264.049 C 111.336 263.994, 116 261.238, 116 257.913 C 116 255.971, 110.753 252.011, 108.171 252.004 C 105.724 251.997, 93.538 246.773, 90.250 244.321 C 87.014 241.909, 86.134 239.266, 87.958 237.442 C 88.485 236.915, 88.565 235.914, 88.135 235.218 C 87.537 234.251, 86.958 234.389, 85.676 235.805 M 95.297 273.668 C 94.945 274.586, 95.423 276.672, 96.360 278.304 C 97.296 279.936, 97.853 281.480, 97.598 281.736 C 96.797 282.537, 95 280.949, 95 279.441 C 95 277.479, 93.361 277.617, 92.583 279.643 C 92.237 280.547, 92.076 281.386, 92.226 281.508 C 97.754 285.982, 103.583 281.999, 99.468 276.559 C 97.746 274.282, 97.589 273, 99.032 273 C 99.600 273, 100.455 274.012, 100.932 275.250 C 101.734 277.331, 101.856 277.361, 102.546 275.649 C 103.021 274.469, 102.785 273.478, 101.896 272.914 C 99.608 271.466, 95.983 271.880, 95.297 273.668 M 275.750 273.661 C 272.348 275.070, 270.688 277, 272.879 277 C 274.014 277, 276.561 283.087, 276.166 284.856 C 276 285.602, 276.232 286.050, 276.682 285.851 C 277.132 285.652, 279.188 284.839, 281.250 284.044 C 284.242 282.890, 284.994 282.083, 284.968 280.049 L 284.937 277.500 282.881 280.255 C 280.776 283.076, 279 283.105, 279 280.319 C 279 279.042, 279.275 278.984, 280.500 280 C 282.372 281.554, 282.372 280.275, 280.500 277 C 279.262 274.834, 279.066 274.761, 279.035 276.450 C 279.008 277.967, 278.733 278.133, 277.800 277.200 C 275.853 275.253, 278.419 273.273, 280.573 275.061 C 282.024 276.265, 282.185 276.201, 281.865 274.551 C 281.372 272.004, 280.173 271.830, 275.750 273.661 M 104.655 278.829 C 100.633 283.273, 105.097 290.710, 110.284 288.205 C 112.434 287.167, 112.417 287.133, 109.719 287.068 C 106.415 286.987, 105.308 284.815, 106.847 281.436 C 108.229 278.403, 112 278.084, 112 281 C 112 283.363, 113.806 283.670, 114.657 281.452 C 116.095 277.705, 107.671 275.496, 104.655 278.829 M 265.170 284.934 C 265.332 288.198, 265.098 291.235, 264.650 291.683 C 263.732 292.602, 261.382 289.853, 259.592 285.767 C 258.453 283.166, 258.287 283.110, 256.140 284.615 C 254.227 285.954, 254.103 286.370, 255.323 287.347 C 257.930 289.435, 260.191 293.764, 259.045 294.472 C 257.505 295.424, 254 294.092, 254 292.555 C 254 291.834, 253.322 290.682, 252.493 289.994 C 251.253 288.965, 250.235 289.240, 246.756 291.543 C 243.874 293.450, 242.994 294.498, 243.996 294.832 C 245.544 295.348, 249.142 299.447, 250.016 301.692 C 250.429 302.752, 250.989 302.696, 252.824 301.411 C 254.945 299.925, 254.988 299.712, 253.404 298.553 C 251.927 297.473, 252.123 297.364, 254.834 297.762 C 257.101 298.095, 258.149 297.775, 258.595 296.612 C 258.936 295.725, 259.625 295, 260.128 295 C 260.631 295, 262.854 293.802, 265.067 292.337 C 267.981 290.408, 268.734 289.443, 267.795 288.837 C 266.755 288.165, 266.785 287.816, 267.952 287.066 C 269.615 285.997, 271.317 286.678, 270.457 288.069 C 270.141 288.581, 270.273 289, 270.750 289 C 271.938 289, 275.618 286.247, 274.998 285.821 C 274.724 285.633, 272.614 284.021, 270.309 282.240 C 268.003 280.458, 265.838 279, 265.497 279 C 265.155 279, 265.009 281.671, 265.170 284.934 M 117 282.500 C 117 284.121, 114.216 289.024, 112.671 290.122 C 112.190 290.464, 112.853 291.484, 114.145 292.389 C 116.424 293.985, 116.515 293.951, 117.219 291.236 C 117.618 289.697, 118.902 287.409, 120.072 286.153 C 121.243 284.896, 122.043 283.733, 121.851 283.569 C 121.658 283.405, 120.487 282.744, 119.250 282.100 C 117.375 281.125, 117 281.191, 117 282.500 M 124 286.458 C 124 287.391, 122.650 289.504, 121 291.154 C 119.350 292.804, 118 294.291, 118 294.458 C 118 294.626, 119.617 295.996, 121.593 297.503 C 124.906 300.030, 125.312 300.117, 126.807 298.622 C 128.302 297.126, 128.222 297, 125.773 297 C 122.427 297, 121.523 295.633, 123.698 293.863 C 125.162 292.673, 125.291 292.722, 124.719 294.250 C 123.786 296.738, 125.702 296.425, 127.072 293.865 C 127.856 292.400, 128.444 292.101, 128.946 292.912 C 129.481 293.779, 130.025 293.675, 130.981 292.523 C 131.698 291.659, 132.108 290.815, 131.893 290.648 C 125.273 285.518, 124 284.843, 124 286.458 M 125.991 290.511 C 124.641 292.137, 125.700 292.476, 127.857 291.110 C 128.681 290.587, 128.824 290.009, 128.220 289.636 C 127.674 289.298, 126.671 289.692, 125.991 290.511 M 248.606 293.416 C 248.941 294.287, 249.653 295, 250.190 295 C 251.505 295, 250.682 292.727, 249.187 292.229 C 248.456 291.985, 248.233 292.443, 248.606 293.416 M 133.222 293.750 C 133.618 295.084, 129.813 300, 128.385 300 C 126.566 300, 126.621 301.441, 128.500 303 C 129.720 304.012, 130 303.965, 130 302.745 C 130 301.920, 130.675 300.685, 131.500 300 C 132.798 298.923, 133 299.405, 133 303.581 L 133 308.406 136.813 304.683 C 138.910 302.635, 140.935 301.268, 141.313 301.646 C 141.691 302.024, 142 301.863, 142 301.289 C 142 300.715, 141.380 299.730, 140.622 299.101 C 139.535 298.199, 139.081 298.438, 138.470 300.229 C 137.779 302.258, 137.651 302.128, 137.267 299.004 C 137.030 297.081, 136.368 294.944, 135.796 294.254 C 134.664 292.891, 132.863 292.538, 133.222 293.750 M 237.969 299.532 C 234.699 302.906, 234.650 303.075, 236.437 304.759 C 238.193 306.414, 238.254 306.413, 237.673 304.750 C 236.866 302.437, 238.143 302.538, 241.320 305.037 C 243.035 306.386, 243.701 307.652, 243.294 308.787 C 242.843 310.045, 243.387 309.856, 245.340 308.076 C 247.859 305.780, 249.079 303.215, 247.058 304.464 C 246.540 304.784, 244.755 303.715, 243.090 302.088 C 240.213 299.276, 240.169 299.115, 242.197 298.815 C 244.035 298.544, 244.124 298.330, 242.840 297.272 C 241.610 296.260, 240.757 296.656, 237.969 299.532 M 142.102 303.377 C 140.924 304.796, 141.053 305.004, 143.128 305.033 L 145.500 305.067 143 307.149 C 141.625 308.294, 139.631 309.841, 138.569 310.587 C 136.692 311.904, 136.690 312, 138.476 313.973 L 140.314 316.004 141.407 313.860 C 142.008 312.681, 143.603 310.992, 144.950 310.108 C 147.256 308.595, 147.360 308.607, 146.704 310.323 C 146.183 311.685, 146.427 312.064, 147.671 311.823 C 150.453 311.283, 150.198 309.562, 146.744 305.567 C 143.782 302.140, 143.312 301.919, 142.102 303.377 M 232.805 313.916 C 235.182 319.134, 235.677 319.661, 237 318.380 C 238.260 317.160, 238.280 316.791, 237.122 316.076 C 236.351 315.599, 236.076 314.686, 236.497 314.005 C 237.079 313.062, 237.434 313.085, 238.064 314.103 C 238.708 315.146, 239.323 315.017, 241.013 313.488 L 243.149 311.555 238.324 309.855 C 230.012 306.926, 229.720 307.141, 232.805 313.916 M 150 312.491 C 150 313.311, 148.431 314.998, 146.512 316.241 C 142.432 318.884, 142.365 319.116, 145 321.500 C 146.222 322.606, 147 322.842, 147 322.107 C 147 320.595, 152.058 316.074, 153.797 316.032 C 154.729 316.009, 154.589 315.307, 153.297 313.531 C 151.246 310.714, 150 310.321, 150 312.491 M 223.814 316.032 L 220.785 319.061 224.930 322.065 C 227.211 323.716, 228.807 325.502, 228.479 326.034 C 227.371 327.827, 229.541 327.017, 231.278 324.989 C 233.448 322.454, 233.437 322.347, 230.925 321.691 C 229.195 321.238, 229.028 320.815, 229.922 319.146 C 230.511 318.046, 230.735 316.472, 230.419 315.650 C 229.329 312.810, 226.896 312.951, 223.814 316.032 M 225 316.924 C 225 317.398, 225.675 318.045, 226.500 318.362 C 227.325 318.678, 228 318.549, 228 318.076 C 228 317.602, 227.325 316.955, 226.500 316.638 C 225.675 316.322, 225 316.451, 225 316.924 M 153 322.291 C 150.525 323.482, 148.305 324.587, 148.067 324.745 C 147.828 324.904, 148.185 325.585, 148.858 326.258 C 149.825 327.225, 150.277 327.170, 151 326 C 151.774 324.748, 152.118 324.730, 153.208 325.883 C 154.264 327.001, 154.261 327.337, 153.189 327.729 C 152.175 328.099, 152.267 328.638, 153.594 330.104 C 154.538 331.147, 155.765 332, 156.322 332 C 156.878 332, 157.055 331.722, 156.716 331.382 C 156.376 331.042, 156.975 328.455, 158.048 325.632 C 159.121 322.809, 159.999 320.387, 159.999 320.250 C 160.001 319.497, 156.962 320.383, 153 322.291 M 213.250 324.730 C 210.658 326.474, 210.254 330.500, 212.582 331.393 C 213.452 331.727, 215.278 332, 216.641 332 C 218.161 332, 218.860 332.417, 218.450 333.081 C 218.082 333.676, 216.706 333.892, 215.391 333.562 C 212.829 332.919, 212.282 333.882, 214.149 335.749 C 215.014 336.614, 216.002 336.533, 218.149 335.423 C 222.910 332.961, 221.340 328, 215.800 328 C 214.260 328, 213 327.501, 213 326.892 C 213 326.209, 213.960 326.024, 215.500 326.411 C 218.158 327.078, 218.825 325.915, 216.750 324.231 C 215.882 323.526, 214.813 323.679, 213.250 324.730 M 167.250 328.134 C 165.587 329.819, 165.672 331.483, 167.500 333 C 169.211 334.420, 169.513 337, 167.968 337 C 167.400 337, 166.545 335.988, 166.068 334.750 C 165.282 332.711, 165.132 332.669, 164.475 334.298 C 163.987 335.506, 164.364 336.562, 165.625 337.516 C 168.074 339.371, 169.508 339.350, 171.429 337.429 C 173.459 335.398, 173.412 334.793, 170.982 331.705 C 169.648 330.008, 169.332 328.913, 170.050 328.469 C 170.659 328.093, 171.375 328.720, 171.684 329.899 C 172.342 332.415, 173.549 332.618, 174.417 330.357 C 175.200 328.314, 175.037 328.155, 171.427 327.444 C 169.669 327.097, 168.001 327.373, 167.250 328.134 M 206.750 327.689 C 204.914 328.169, 204.297 330, 205.971 330 C 207.030 330, 208.963 336.033, 208.294 337.250 C 208.067 337.663, 207.255 338, 206.488 338 C 205.042 338, 202.678 331.330, 203.597 329.844 C 204.224 328.829, 202.229 328.855, 199.566 329.898 C 198.272 330.405, 198.015 330.891, 198.789 331.370 C 199.425 331.763, 200.425 333.865, 201.011 336.042 C 201.922 339.424, 202.472 339.998, 204.789 339.985 C 209.315 339.959, 210.388 338.692, 209.560 334.350 C 209.156 332.233, 208.837 329.712, 208.851 328.750 C 208.865 327.788, 208.791 327.052, 208.688 327.116 C 208.585 327.180, 207.713 327.438, 206.750 327.689 M 177.624 334.960 C 173.412 340.823, 173.364 341, 175.969 341 C 177.363 341, 177.758 340.533, 177.323 339.399 C 176.869 338.215, 177.203 337.898, 178.604 338.185 C 179.740 338.417, 180.382 339.259, 180.206 340.286 C 179.996 341.512, 180.599 342, 182.325 342 L 184.737 342 183.436 336.400 C 182.720 333.321, 181.935 330.602, 181.691 330.358 C 181.448 330.114, 179.618 332.185, 177.624 334.960 M 188.605 331.717 C 187.519 331.995, 187.157 332.479, 187.757 332.851 C 189.108 333.688, 189.669 340.109, 188.549 341.920 C 187.848 343.055, 188.410 343.193, 191.595 342.667 C 193.743 342.312, 196.063 342.017, 196.750 342.011 C 197.438 342.005, 198 340.825, 198 339.389 L 198 336.778 196.086 339.139 C 193.664 342.127, 192.978 341.414, 192.712 335.636 C 192.501 331.042, 192.235 330.788, 188.605 331.717" stroke="none" fill="#b6985a" fill-rule="evenodd"/><path d="M 278 97.333 L 278 100 234.500 100 C 207.519 100, 191 100.363, 191 100.955 C 191 101.481, 208.257 125.015, 229.349 153.253 C 250.441 181.491, 267.901 205.204, 268.149 205.948 C 268.669 207.506, 273.372 192.361, 275.673 181.716 C 276.861 176.225, 277.388 165.058, 277.879 135 C 278.233 113.275, 278.406 95.313, 278.262 95.083 C 278.118 94.854, 278 95.867, 278 97.333 M 99.296 135.250 C 99.674 161.619, 100.206 172.641, 101.405 179 C 103.084 187.897, 107.665 203.959, 108.893 205.254 C 109.286 205.669, 111.830 202.969, 114.545 199.254 C 117.260 195.539, 134.673 172.139, 153.240 147.253 C 171.808 122.367, 187 101.554, 187 101.003 C 187 100.348, 171.711 100, 142.896 100 L 98.791 100 99.296 135.250 M 121.250 106.662 C 120.563 106.940, 120 108.379, 120 109.861 C 120 113.239, 117.441 117, 115.143 117 C 112.791 117, 111 118.946, 111 121.500 C 111 124.016, 112.783 126, 115.045 126 C 115.950 126, 117.423 126.809, 118.318 127.799 C 119.645 129.265, 119.997 132.450, 120.223 145.049 L 120.500 160.500 123.757 160.814 C 126 161.030, 127.201 160.641, 127.614 159.564 C 128.064 158.390, 129.684 158, 134.107 158 L 140 158 140 150 L 140 142 134 142 L 128 142 128 135.655 C 128 128.995, 129.660 126, 133.350 126 C 134.281 126, 135.530 124.932, 136.124 123.626 C 137.464 120.685, 135.794 117, 133.120 117 C 130.630 117, 128 113.852, 128 110.871 C 128 106.882, 125.134 105.095, 121.250 106.662 M 243.284 113.463 L 239.089 120.781 229.937 121.505 L 220.785 122.229 227.077 128.577 L 233.368 134.925 231.694 142.639 C 230.773 146.882, 230.136 150.469, 230.278 150.611 C 230.420 150.753, 234.061 149.337, 238.368 147.464 L 246.200 144.058 253.649 148.146 C 257.746 150.395, 261.253 152.069, 261.441 151.867 C 261.630 151.665, 261.409 149.250, 260.952 146.500 C 259.232 136.173, 259.415 135.592, 266 130.419 C 269.300 127.826, 272 125.387, 272 124.998 C 272 124.610, 268.288 123.664, 263.750 122.896 L 255.500 121.500 251.720 114.054 C 249.642 109.958, 247.837 106.503, 247.710 106.376 C 247.582 106.249, 245.591 109.438, 243.284 113.463 M 123 119.044 C 123 119.618, 122.264 119.955, 121.364 119.794 C 120.464 119.632, 119.611 120.233, 119.470 121.129 C 119.281 122.322, 119.761 122.614, 121.264 122.221 C 122.951 121.780, 123.219 122.055, 122.771 123.767 C 122.379 125.266, 122.615 125.701, 123.613 125.318 C 124.376 125.025, 125 124.159, 125 123.393 C 125 122.627, 125.375 122, 125.833 122 C 126.292 122, 126.667 121.345, 126.667 120.544 C 126.667 119.743, 126.292 119.320, 125.833 119.603 C 125.375 119.886, 125 119.641, 125 119.059 C 125 118.477, 124.550 118, 124 118 C 123.450 118, 123 118.470, 123 119.044 M 121.400 143.500 C 121.401 151.750, 121.556 154.992, 121.744 150.704 C 121.932 146.417, 121.931 139.667, 121.742 135.704 C 121.552 131.742, 121.399 135.250, 121.400 143.500 M 132.762 147.707 C 134.006 147.946, 135.806 147.937, 136.762 147.687 C 137.718 147.437, 136.700 147.241, 134.500 147.252 C 132.300 147.263, 131.518 147.468, 132.762 147.707 M 186.405 158.856 C 170.529 178.894, 151.031 205.241, 151.507 206.012 C 151.843 206.555, 152.660 207, 153.322 207 C 153.985 207, 156.883 208.587, 159.763 210.527 C 164.978 214.038, 166.396 214.201, 163.453 210.948 C 162.031 209.376, 162.323 208.933, 167.084 205.438 C 172.629 201.368, 172.724 201.381, 175.818 206.663 C 176.208 207.328, 177.677 207.599, 179.250 207.296 C 181.782 206.809, 181.998 206.400, 181.978 202.133 C 181.966 199.585, 181.094 195.601, 180.040 193.280 L 178.124 189.059 180.532 183.280 C 181.857 180.101, 184.106 173.563, 185.531 168.750 C 186.955 163.938, 188.431 160.002, 188.811 160.004 C 189.190 160.006, 190.808 164.569, 192.407 170.145 C 194.006 175.721, 196.288 182.205, 197.478 184.555 C 199.576 188.700, 199.588 188.927, 197.885 192.164 C 195.498 196.700, 193.557 204.962, 194.631 206.010 C 195.109 206.477, 196.705 207.156, 198.178 207.519 C 200.469 208.085, 201.088 207.730, 202.470 205.059 L 204.084 201.937 207.057 203.693 C 208.693 204.659, 211.259 206.429, 212.760 207.626 L 215.489 209.802 213.495 212.117 L 211.500 214.432 214 212.717 C 215.375 211.773, 218.896 209.740, 221.824 208.198 L 227.149 205.395 208.959 181.947 C 198.954 169.051, 190.258 157.985, 189.635 157.356 C 188.785 156.498, 187.975 156.874, 186.405 158.856 M 138.494 221.054 C 132.460 228.908, 126.980 235.877, 126.317 236.540 C 123.691 239.166, 145.083 261.112, 160.088 271.187 C 168.357 276.739, 186.173 286, 188.584 286 C 190.632 286, 202.017 280.573, 210.430 275.585 C 221.620 268.952, 233.796 259.192, 241.428 250.736 C 248.220 243.212, 255.562 233.622, 252.951 235.685 C 251.695 236.678, 249.595 234.456, 239.976 221.956 C 233.664 213.753, 228.201 207.033, 227.835 207.021 C 227.470 207.010, 225.577 209.170, 223.630 211.823 L 220.090 216.646 222.619 222.908 C 224.010 226.353, 224.904 229.808, 224.605 230.587 C 224.306 231.367, 224.460 234.140, 224.948 236.749 C 225.435 239.359, 225.480 241.946, 225.047 242.497 C 224.615 243.049, 223.698 245.300, 223.010 247.500 C 221.283 253.021, 220.695 253.411, 216.982 251.491 C 214.303 250.105, 213.577 250.047, 212.834 251.156 C 210.097 255.241, 210.075 255.722, 212.526 258.025 C 215.391 260.716, 214.955 261.559, 208.345 266.107 L 204.075 269.045 202.436 265.877 C 200.519 262.170, 199.040 263.412, 199.015 268.750 L 199 272 189.117 272 C 178.385 272, 178.054 271.801, 178.014 265.309 C 177.992 261.802, 176.127 261.614, 174.241 264.929 C 173.283 266.611, 172.110 267.990, 171.634 267.994 C 171.158 267.997, 168.542 266.366, 165.822 264.369 L 160.876 260.739 163.582 257.914 C 166.224 255.156, 166.248 255.027, 164.559 252.450 C 163.332 250.577, 162.274 249.984, 160.915 250.406 C 159.862 250.733, 158.137 251.268, 157.081 251.595 C 155.466 252.097, 154.885 251.311, 153.408 246.626 C 151.979 242.092, 151.839 240.043, 152.652 235.556 C 153.287 232.056, 153.301 229.934, 152.691 229.730 C 151.249 229.250, 155.333 217.449, 156.831 217.764 C 158.538 218.124, 157.094 215.559, 152.820 210.637 L 149.465 206.773 138.494 221.054 M 180.750 213.689 C 178.408 214.301, 178.548 214.900, 182 219 L 184.946 222.500 184.973 217.750 C 185 212.940, 184.705 212.656, 180.750 213.689 M 193 217.722 L 193 222.444 195.426 218.972 C 197.626 215.823, 197.702 215.384, 196.235 214.250 C 193.558 212.181, 193 212.780, 193 217.722 M 186.310 219.500 C 186.315 222.800, 186.502 224.029, 186.725 222.232 C 186.947 220.435, 186.943 217.735, 186.715 216.232 C 186.486 214.729, 186.304 216.200, 186.310 219.500 M 174.035 226.045 C 175.292 228.495, 177.354 232.975, 178.618 236 C 181.555 243.030, 181.624 239.512, 178.715 231.090 C 177.331 227.085, 175.609 224.100, 174.125 223.135 L 171.750 221.590 174.035 226.045 M 202.204 224.282 C 199.935 226.698, 197.709 232.236, 196.691 238 C 196.276 240.349, 197.542 238.406, 200.543 232.090 C 203.002 226.915, 204.863 222.529, 204.678 222.344 C 204.493 222.159, 203.380 223.031, 202.204 224.282 M 157.181 236.064 C 156.455 237.236, 156.125 238.458, 156.447 238.781 C 157.413 239.747, 159.214 237.337, 158.844 235.573 C 158.556 234.199, 158.286 234.279, 157.181 236.064 M 167.416 238.250 C 168.061 242.333, 172.623 250.711, 173.644 249.689 C 174.216 249.118, 168.082 234, 167.279 234 C 166.985 234, 167.047 235.912, 167.416 238.250 M 217.798 236.277 C 217.403 238.344, 217.754 238.911, 219.655 239.274 C 222.462 239.811, 222.543 239.264, 220.120 236.113 L 218.285 233.727 217.798 236.277 M 206.124 242.157 C 203.739 247.895, 203.857 249.393, 206.390 245.527 C 208.035 243.016, 209.706 237, 208.758 237 C 208.488 237, 207.302 239.321, 206.124 242.157 M 184.750 269.732 C 187.088 269.943, 190.912 269.943, 193.250 269.732 C 195.588 269.522, 193.675 269.349, 189 269.349 C 184.325 269.349, 182.412 269.522, 184.750 269.732" stroke="none" fill="#087ba9" fill-rule="evenodd"/><path d="M 188.743 25.747 L 281.986 26.010 282.254 95.255 L 282.521 164.500 282.510 95 L 282.500 25.500 189 25.492 L 95.500 25.485 188.743 25.747 M 165.409 62.500 C 165.408 71.850, 165.558 75.810, 165.743 71.299 C 165.928 66.789, 165.929 59.139, 165.745 54.299 C 165.562 49.460, 165.410 53.150, 165.409 62.500 M 174.762 46.707 C 176.006 46.946, 177.806 46.937, 178.762 46.687 C 179.718 46.437, 178.700 46.241, 176.500 46.252 C 174.300 46.263, 173.518 46.468, 174.762 46.707 M 187.411 63 C 187.411 72.625, 187.561 76.563, 187.745 71.750 C 187.928 66.937, 187.928 59.062, 187.745 54.250 C 187.561 49.438, 187.411 53.375, 187.411 63 M 199.269 46.693 C 200.242 46.947, 201.592 46.930, 202.269 46.656 C 202.946 46.382, 202.150 46.175, 200.500 46.195 C 198.850 46.215, 198.296 46.439, 199.269 46.693 M 175.750 53.662 C 176.438 53.940, 177.563 53.940, 178.250 53.662 C 178.938 53.385, 178.375 53.158, 177 53.158 C 175.625 53.158, 175.063 53.385, 175.750 53.662 M 175.250 58.689 C 176.213 58.941, 177.787 58.941, 178.750 58.689 C 179.713 58.438, 178.925 58.232, 177 58.232 C 175.075 58.232, 174.287 58.438, 175.250 58.689 M 199.250 58.689 C 200.213 58.941, 201.787 58.941, 202.750 58.689 C 203.713 58.438, 202.925 58.232, 201 58.232 C 199.075 58.232, 198.287 58.438, 199.250 58.689 M 200.269 75.693 C 201.242 75.947, 202.592 75.930, 203.269 75.656 C 203.946 75.382, 203.150 75.175, 201.500 75.195 C 199.850 75.215, 199.296 75.439, 200.269 75.693 M 169.345 80.250 C 169.090 80.662, 172.134 81, 176.108 81 C 180.082 81, 183.059 80.726, 182.725 80.391 C 181.830 79.497, 169.887 79.371, 169.345 80.250 M 194.345 80.250 C 194.090 80.662, 197.396 80.939, 201.691 80.864 C 209.862 80.721, 209.230 80.279, 200.154 79.789 C 197.214 79.630, 194.600 79.838, 194.345 80.250 M 94.286 153.500 C 94.294 156.250, 94.488 157.256, 94.718 155.736 C 94.947 154.216, 94.941 151.966, 94.704 150.736 C 94.467 149.506, 94.279 150.750, 94.286 153.500 M 95.158 169 C 95.158 170.375, 95.385 170.938, 95.662 170.250 C 95.940 169.563, 95.940 168.438, 95.662 167.750 C 95.385 167.063, 95.158 167.625, 95.158 169 M 281.158 171 C 281.158 172.375, 281.385 172.938, 281.662 172.250 C 281.940 171.563, 281.940 170.438, 281.662 169.750 C 281.385 169.063, 281.158 169.625, 281.158 171 M 87.028 237.466 C 86.359 238.273, 85.966 239.383, 86.155 239.934 C 86.345 240.484, 87.020 239.824, 87.656 238.467 C 88.974 235.654, 88.783 235.351, 87.028 237.466 M 288.237 238.240 C 288.931 239.722, 289.665 240.455, 289.866 239.869 C 290.067 239.283, 289.499 238.070, 288.603 237.174 C 287.097 235.668, 287.069 235.749, 288.237 238.240 M 294.195 238.500 C 294.215 240.150, 294.439 240.704, 294.693 239.731 C 294.947 238.758, 294.930 237.408, 294.656 236.731 C 294.382 236.054, 294.175 236.850, 294.195 238.500 M 293.252 246.500 C 293.263 248.700, 293.468 249.482, 293.707 248.238 C 293.946 246.994, 293.937 245.194, 293.687 244.238 C 293.437 243.282, 293.241 244.300, 293.252 246.500 M 127.500 248 C 128.495 249.100, 129.535 250, 129.810 250 C 130.085 250, 129.495 249.100, 128.500 248 C 127.505 246.900, 126.465 246, 126.190 246 C 125.915 246, 126.505 246.900, 127.500 248 M 82.158 249 C 82.158 250.375, 82.385 250.938, 82.662 250.250 C 82.940 249.563, 82.940 248.438, 82.662 247.750 C 82.385 247.063, 82.158 247.625, 82.158 249 M 240.473 257.250 L 233.500 264.500 240.750 257.527 C 247.484 251.050, 248.457 250, 247.723 250 C 247.571 250, 244.308 253.262, 240.473 257.250 M 135.500 257 C 138.209 259.750, 140.650 262, 140.925 262 C 141.200 262, 139.209 259.750, 136.500 257 C 133.791 254.250, 131.350 252, 131.075 252 C 130.800 252, 132.791 254.250, 135.500 257 M 113.642 255 C 114.271 255.825, 115.006 257.400, 115.276 258.500 C 115.743 260.400, 115.774 260.393, 115.884 258.372 C 115.948 257.202, 115.213 255.627, 114.250 254.872 C 112.728 253.679, 112.649 253.695, 113.642 255 M 95.459 262.067 C 94.433 263.727, 95.354 263.957, 96.789 262.399 C 97.499 261.630, 97.638 261, 97.098 261 C 96.559 261, 95.821 261.480, 95.459 262.067 M 279.211 262.399 C 279.920 263.169, 280.658 263.649, 280.850 263.466 C 281.443 262.902, 279.940 261, 278.902 261 C 278.362 261, 278.501 261.630, 279.211 262.399 M 100 263.776 C 100 264.203, 101.912 264.405, 104.250 264.224 C 111.255 263.681, 111.853 263.239, 105.750 263.116 C 102.588 263.052, 100 263.349, 100 263.776 M 265.083 263.414 C 265.831 264.157, 275.935 264.399, 276.643 263.690 C 277.023 263.311, 274.483 263, 271 263 C 267.517 263, 264.854 263.186, 265.083 263.414 M 229.405 267.250 L 227.500 269.500 229.750 267.595 C 230.988 266.547, 232 265.535, 232 265.345 C 232 264.545, 231.195 265.136, 229.405 267.250 M 297.924 271.750 L 295.500 274.500 298.250 272.076 C 299.762 270.742, 301 269.505, 301 269.326 C 301 268.541, 300.190 269.180, 297.924 271.750 M 122 273.430 C 122 273.705, 122.900 274.411, 124 275 C 125.100 275.589, 126 275.845, 126 275.570 C 126 275.295, 125.100 274.589, 124 274 C 122.900 273.411, 122 273.155, 122 273.430 M 276.333 274.456 C 276.333 275.257, 276.708 275.680, 277.167 275.397 C 277.625 275.114, 278 274.459, 278 273.941 C 278 273.423, 277.625 273, 277.167 273 C 276.708 273, 276.333 273.655, 276.333 274.456 M 280.138 274.333 C 279.311 275.330, 279.365 275.667, 280.349 275.667 C 281.074 275.667, 281.667 275.067, 281.667 274.333 C 281.667 273.600, 281.572 273, 281.456 273 C 281.340 273, 280.747 273.600, 280.138 274.333 M 272 275.449 C 272 275.831, 272.675 276.818, 273.500 277.643 C 274.325 278.468, 275 278.716, 275 278.194 C 275 277.672, 274.325 276.685, 273.500 276 C 272.675 275.315, 272 275.067, 272 275.449 M 109.459 278.067 C 109.063 278.707, 109.539 279.007, 110.650 278.817 C 112.077 278.572, 112.458 279.071, 112.315 281 C 112.208 282.445, 112.344 282.761, 112.638 281.750 C 112.918 280.788, 113.650 280, 114.264 280 C 114.879 280, 114.509 279.339, 113.441 278.532 C 111.096 276.758, 110.323 276.668, 109.459 278.067 M 93.701 279.664 C 94.131 280.783, 93.957 281.091, 93.170 280.605 C 92.526 280.207, 92 280.310, 92 280.834 C 92 281.920, 94.554 283.113, 95.293 282.373 C 96.034 281.633, 94.888 278, 93.915 278 C 93.446 278, 93.350 278.749, 93.701 279.664 M 281.270 281.643 C 281.281 283.214, 281.478 283.963, 281.709 283.306 C 281.940 282.650, 282.888 282.355, 283.815 282.651 C 285.128 283.070, 285.198 282.973, 284.132 282.212 C 283.380 281.675, 282.423 280.685, 282.007 280.011 C 281.557 279.283, 281.258 279.944, 281.270 281.643 M 167 280.449 C 167 280.724, 168.350 281.647, 170 282.500 C 171.650 283.353, 173 283.826, 173 283.551 C 173 283.276, 171.650 282.353, 170 281.500 C 168.350 280.647, 167 280.174, 167 280.449 M 105 284.559 C 105 285.540, 104.537 285.840, 103.750 285.367 C 102.890 284.851, 102.926 285.141, 103.863 286.297 C 105.572 288.404, 106.983 287.649, 106.289 284.999 C 105.666 282.613, 105 282.386, 105 284.559 M 236.405 285.250 L 234.500 287.500 236.750 285.595 C 237.988 284.547, 239 283.535, 239 283.345 C 239 282.545, 238.195 283.136, 236.405 285.250 M 265.030 285.550 C 265.057 288.136, 265.193 288.272, 266.134 286.654 C 266.903 285.330, 266.895 284.495, 266.104 283.704 C 265.299 282.899, 265.008 283.399, 265.030 285.550 M 272.226 284.579 C 273.176 285.570, 274.168 286.166, 274.431 285.903 C 274.694 285.640, 273.917 284.829, 272.705 284.100 C 270.598 282.835, 270.577 282.857, 272.226 284.579 M 144 284.313 C 144 284.485, 145.463 285.948, 147.250 287.563 L 150.500 290.500 147.563 287.250 C 144.825 284.221, 144 283.540, 144 284.313 M 224.971 290.750 L 218.500 297.500 225.250 291.029 C 228.963 287.470, 232 284.432, 232 284.279 C 232 283.543, 230.982 284.480, 224.971 290.750 M 177 286 C 177.825 286.533, 178.950 286.969, 179.500 286.969 C 180.050 286.969, 179.825 286.533, 179 286 C 178.175 285.467, 177.050 285.031, 176.500 285.031 C 175.950 285.031, 176.175 285.467, 177 286 M 107.500 288 C 107.160 288.550, 107.584 289, 108.441 289 C 109.298 289, 110 288.550, 110 288 C 110 287.450, 109.577 287, 109.059 287 C 108.541 287, 107.840 287.450, 107.500 288 M 141 290.500 C 142.292 291.875, 143.574 293, 143.849 293 C 144.124 293, 143.292 291.875, 142 290.500 C 140.708 289.125, 139.426 288, 139.151 288 C 138.876 288, 139.708 289.125, 141 290.500 M 229.473 295.250 L 222.500 302.500 229.750 295.527 C 236.484 289.050, 237.457 288, 236.723 288 C 236.571 288, 233.308 291.262, 229.473 295.250 M 147.958 293.250 C 150.410 295.863, 152.548 298, 152.708 298 C 153.459 298, 152.665 297.102, 148.250 292.958 L 143.500 288.500 147.958 293.250 M 131 290.740 C 131 291.330, 129.988 291.599, 128.750 291.338 C 126.688 290.902, 126.654 290.960, 128.346 292.035 C 130.252 293.245, 133.127 291.794, 131.683 290.350 C 131.308 289.974, 131 290.150, 131 290.740 M 119.545 292.542 C 117.609 294.006, 117.609 294.035, 119.538 295.760 C 120.609 296.717, 120.933 296.854, 120.257 296.064 C 119.272 294.913, 119.354 294.267, 120.669 292.814 C 122.640 290.635, 122.206 290.530, 119.545 292.542 M 154 294.500 C 155.866 296.425, 157.617 298, 157.892 298 C 158.167 298, 156.866 296.425, 155 294.500 C 153.134 292.575, 151.383 291, 151.108 291 C 150.833 291, 152.134 292.575, 154 294.500 M 253.268 292.417 C 253.395 293.472, 254.175 294.518, 255 294.743 C 255.965 295.006, 256.107 294.857, 255.400 294.326 C 254.795 293.872, 254.015 292.825, 253.668 292 C 253.223 290.946, 253.104 291.070, 253.268 292.417 M 244 293.500 C 243.282 294.365, 243.185 295, 243.771 295 C 244.329 295, 245.045 294.325, 245.362 293.500 C 245.678 292.675, 245.781 292, 245.591 292 C 245.401 292, 244.685 292.675, 244 293.500 M 258.500 294.765 C 257.452 295.535, 256.663 298, 257.465 298 C 257.720 298, 258.411 297.100, 259 296 C 260.152 293.847, 260.060 293.619, 258.500 294.765 M 132 296.500 C 131.315 297.325, 131.090 298, 131.500 298 C 131.910 298, 131.707 298.648, 131.049 299.441 C 130.392 300.233, 129.212 300.635, 128.427 300.334 C 126.545 299.612, 126.595 301.419, 128.500 303 C 129.720 304.012, 130 303.965, 130 302.745 C 130 301.920, 130.642 300.712, 131.428 300.060 C 132.598 299.089, 132.931 299.382, 133.278 301.688 C 133.683 304.382, 133.707 304.364, 133.850 301.250 C 133.934 299.425, 133.508 298, 132.878 298 C 132.102 298, 132.140 297.536, 133 296.500 C 133.685 295.675, 134.020 295, 133.745 295 C 133.470 295, 132.685 295.675, 132 296.500 M 250.960 296.713 C 251.618 298.073, 252.602 298.706, 253.515 298.356 C 255.308 297.668, 255.524 296.657, 253.750 297.254 C 253.063 297.486, 251.913 296.961, 251.195 296.088 C 250.084 294.736, 250.049 294.830, 250.960 296.713 M 270.750 296.572 C 267.012 298.600, 267.239 299.445, 271 297.500 C 272.650 296.647, 274 295.735, 274 295.474 C 274 294.831, 273.893 294.867, 270.750 296.572 M 122.015 296.628 C 122.007 297.248, 122.698 298.334, 123.550 299.042 C 124.826 300.100, 125.372 300.057, 126.632 298.797 C 128.007 297.421, 127.926 297.280, 125.832 297.412 C 124.549 297.492, 123.169 297.095, 122.765 296.529 C 122.278 295.846, 122.025 295.880, 122.015 296.628 M 147 296.313 C 147 296.485, 148.463 297.948, 150.250 299.563 L 153.500 302.500 150.563 299.250 C 147.825 296.221, 147 295.540, 147 296.313 M 237.946 299.739 C 236.051 301.795, 234.897 303.161, 235.381 302.774 C 235.866 302.387, 237.216 302.529, 238.381 303.090 C 240.311 304.019, 240.344 303.984, 238.759 302.702 C 237.105 301.363, 237.105 301.218, 238.759 299.777 C 239.717 298.943, 241.074 298.394, 241.775 298.555 C 242.476 298.717, 242.586 298.620, 242.019 298.340 C 241.452 298.059, 241.242 297.418, 241.553 296.915 C 242.748 294.980, 241.253 296.151, 237.946 299.739 M 247.500 298 C 248.495 299.100, 249.535 300, 249.810 300 C 250.085 300, 249.495 299.100, 248.500 298 C 247.505 296.900, 246.465 296, 246.190 296 C 245.915 296, 246.505 296.900, 247.500 298 M 136.232 300 C 136.232 301.925, 136.438 302.712, 136.689 301.750 C 136.941 300.788, 136.941 299.212, 136.689 298.250 C 136.438 297.288, 136.232 298.075, 136.232 300 M 161.500 303 C 162.495 304.100, 163.535 305, 163.810 305 C 164.085 305, 163.495 304.100, 162.500 303 C 161.505 301.900, 160.465 301, 160.190 301 C 159.915 301, 160.505 301.900, 161.500 303 M 142.543 302.931 C 142.226 303.443, 142.425 304.144, 142.984 304.490 C 143.543 304.835, 144 304.797, 144 304.404 C 144 304.011, 145.012 304.544, 146.250 305.588 C 148.276 307.297, 148.259 307.213, 146.076 304.743 C 143.347 301.656, 143.335 301.650, 142.543 302.931 M 155.500 306 C 156.495 307.100, 157.535 308, 157.810 308 C 158.085 308, 157.495 307.100, 156.500 306 C 155.505 304.900, 154.465 304, 154.190 304 C 153.915 304, 154.505 304.900, 155.500 306 M 162 309.500 C 163.866 311.425, 165.617 313, 165.892 313 C 166.167 313, 164.866 311.425, 163 309.500 C 161.134 307.575, 159.383 306, 159.108 306 C 158.833 306, 160.134 307.575, 162 309.500 M 212.453 310.250 L 208.500 314.500 212.750 310.547 C 216.702 306.871, 217.460 306, 216.703 306 C 216.540 306, 214.627 307.913, 212.453 310.250 M 145.405 309.155 C 144.930 309.923, 145.134 310.035, 146.015 309.490 C 146.966 308.903, 147.167 309.123, 146.728 310.267 C 146.267 311.468, 146.622 311.765, 148.165 311.468 C 149.849 311.144, 150.115 311.468, 149.657 313.287 C 149.130 315.379, 149.176 315.398, 150.489 313.642 C 151.566 312.202, 151.611 311.497, 150.689 310.503 C 149.817 309.563, 149.304 309.525, 148.765 310.361 C 148.297 311.087, 148.025 310.865, 148.015 309.750 C 147.998 307.766, 146.477 307.419, 145.405 309.155 M 246 314.500 C 243.571 316.975, 241.809 319, 242.084 319 C 242.359 319, 244.571 316.975, 247 314.500 C 249.429 312.025, 251.191 310, 250.916 310 C 250.641 310, 248.429 312.025, 246 314.500 M 129.500 315 C 131.648 317.200, 133.631 319, 133.906 319 C 134.181 319, 132.648 317.200, 130.500 315 C 128.352 312.800, 126.369 311, 126.094 311 C 125.819 311, 127.352 312.800, 129.500 315 M 140.990 312.512 C 139.972 313.739, 139.429 313.790, 138.117 312.780 C 137.071 311.974, 137.172 312.322, 138.405 313.767 C 139.453 314.995, 140.540 316, 140.822 316 C 141.103 316, 141.032 315.699, 140.664 315.331 C 140.297 314.963, 140.741 313.838, 141.653 312.831 C 142.564 311.824, 143.070 311, 142.777 311 C 142.485 311, 141.680 311.681, 140.990 312.512 M 232.756 312.649 C 233.447 312.936, 233.715 313.652, 233.352 314.240 C 232.931 314.921, 233.172 315.012, 234.015 314.490 C 234.975 313.897, 235.165 314.127, 234.706 315.324 C 234.357 316.233, 234.393 316.928, 234.786 316.870 C 236.762 316.575, 237.120 317.165, 235.927 318.750 C 234.725 320.346, 234.780 320.343, 236.555 318.714 C 238.071 317.321, 238.213 316.750, 237.197 316.122 C 236.481 315.679, 236.031 314.745, 236.197 314.045 C 236.367 313.331, 235.404 312.632, 234 312.450 C 232.625 312.272, 232.065 312.362, 232.756 312.649 M 223.405 316.250 L 221.500 318.500 223.750 316.595 C 224.988 315.547, 226 314.535, 226 314.345 C 226 313.545, 225.195 314.136, 223.405 316.250 M 149.924 317.750 L 147.500 320.500 150 318.377 C 151.375 317.210, 153.175 316.008, 154 315.706 C 155.284 315.237, 155.274 315.147, 153.924 315.079 C 153.058 315.036, 151.258 316.238, 149.924 317.750 M 144.647 317.838 C 143.090 319.558, 143.112 319.792, 144.992 321.493 C 146.096 322.492, 147 322.838, 147 322.262 C 147 321.686, 146.264 320.931, 145.364 320.586 C 143.873 320.014, 143.887 319.783, 145.519 317.979 C 146.504 316.891, 147.085 316, 146.810 316 C 146.535 316, 145.562 316.827, 144.647 317.838 M 226.437 318.771 C 226.779 319.112, 227.761 319.494, 228.621 319.621 C 229.480 319.747, 229.904 319.571, 229.563 319.229 C 229.221 318.888, 228.239 318.506, 227.379 318.379 C 226.520 318.253, 226.096 318.429, 226.437 318.771 M 229 321.558 C 229 321.763, 229.900 322.411, 231 323 C 232.105 323.591, 233 323.659, 233 323.152 C 233 322.647, 232.100 321.998, 231 321.710 C 229.900 321.423, 229 321.354, 229 321.558 M 153 323.059 C 153 323.641, 152.550 323.840, 152 323.500 C 151.450 323.160, 151 323.344, 151 323.910 C 151 324.475, 150.325 324.678, 149.500 324.362 C 148.675 324.045, 148 324.209, 148 324.726 C 148 326.441, 149.297 326.998, 150.658 325.869 C 151.654 325.042, 152.451 325.096, 153.750 326.079 C 155.200 327.177, 155.299 327.177, 154.328 326.080 C 153.684 325.352, 153.394 324.136, 153.685 323.378 C 153.976 322.620, 153.941 322, 153.607 322 C 153.273 322, 153 322.477, 153 323.059 M 138.500 325 C 139.495 326.100, 140.535 327, 140.810 327 C 141.085 327, 140.495 326.100, 139.500 325 C 138.505 323.900, 137.465 323, 137.190 323 C 136.915 323, 137.505 323.900, 138.500 325 M 214.489 324.018 C 214.110 324.631, 214.070 325.403, 214.400 325.733 C 214.730 326.063, 215 325.782, 215 325.108 C 215 324.434, 215.457 324.165, 216.016 324.510 C 216.575 324.856, 216.774 325.557, 216.457 326.069 C 216.141 326.581, 216.359 327, 216.941 327 C 218.440 327, 218.254 325.456, 216.589 324.074 C 215.560 323.220, 214.992 323.205, 214.489 324.018 M 236.405 325.250 L 234.500 327.500 236.750 325.595 C 237.988 324.547, 239 323.535, 239 323.345 C 239 322.545, 238.195 323.136, 236.405 325.250 M 184.750 324.723 C 186.537 324.945, 189.463 324.945, 191.250 324.723 C 193.037 324.502, 191.575 324.320, 188 324.320 C 184.425 324.320, 182.963 324.502, 184.750 324.723 M 211.675 325.658 C 210.361 326.973, 213.322 328.997, 216.372 328.868 L 219.500 328.737 216 328.086 C 214.032 327.721, 212.609 326.903, 212.750 326.218 C 213.029 324.860, 212.663 324.670, 211.675 325.658 M 205 328.563 C 205 329.727, 207.887 331.992, 208.372 331.208 C 208.646 330.764, 208 329.856, 206.935 329.192 C 205.871 328.527, 205 328.244, 205 328.563 M 142 329.313 C 142 329.485, 143.463 330.948, 145.250 332.563 L 148.500 335.500 145.563 332.250 C 142.825 329.221, 142 328.540, 142 329.313 M 231.405 331.250 L 229.500 333.500 231.750 331.595 C 232.988 330.547, 234 329.535, 234 329.345 C 234 328.545, 233.195 329.136, 231.405 331.250 M 169.823 331.191 C 171.236 332.995, 174.451 332.538, 173.311 330.694 C 172.840 329.931, 172.508 329.976, 172.220 330.841 C 171.893 331.820, 171.456 331.810, 170.153 330.792 C 168.689 329.648, 168.651 329.693, 169.823 331.191 M 220.079 331.809 C 220.036 333.079, 219.641 333.896, 219.202 333.625 C 218.763 333.354, 217.815 333.496, 217.095 333.941 C 216.176 334.509, 216.116 334.954, 216.893 335.434 C 217.502 335.810, 218 335.615, 218 335 C 218 334.385, 218.453 334.162, 219.007 334.504 C 220.213 335.250, 221.401 332.596, 220.673 330.783 C 220.390 330.077, 220.122 330.539, 220.079 331.809 M 214.269 331.693 C 215.242 331.947, 216.592 331.930, 217.269 331.656 C 217.946 331.382, 217.150 331.175, 215.500 331.195 C 213.850 331.215, 213.296 331.439, 214.269 331.693 M 208.667 333.667 C 208.300 334.033, 208 334.798, 208 335.367 C 208 335.993, 208.466 335.934, 209.183 335.217 C 209.834 334.566, 210.134 333.801, 209.850 333.517 C 209.566 333.233, 209.033 333.300, 208.667 333.667 M 213.570 333.887 C 213.269 334.374, 213.805 335.387, 214.761 336.137 C 216.297 337.341, 216.355 337.314, 215.259 335.908 C 214.576 335.032, 214.313 334.020, 214.675 333.658 C 215.037 333.296, 215.060 333, 214.726 333 C 214.391 333, 213.871 333.399, 213.570 333.887 M 168.232 337 C 167.224 338.614, 167.233 339, 168.279 339 C 168.991 339, 169.642 338.100, 169.725 337 C 169.808 335.900, 169.787 335, 169.678 335 C 169.570 335, 168.919 335.900, 168.232 337 M 189.158 338 C 189.158 339.375, 189.385 339.938, 189.662 339.250 C 189.940 338.563, 189.940 337.438, 189.662 336.750 C 189.385 336.063, 189.158 336.625, 189.158 338 M 192.158 338 C 192.158 339.375, 192.385 339.938, 192.662 339.250 C 192.940 338.563, 192.940 337.438, 192.662 336.750 C 192.385 336.063, 192.158 336.625, 192.158 338 M 151.500 339 C 152.495 340.100, 153.535 341, 153.810 341 C 154.085 341, 153.495 340.100, 152.500 339 C 151.505 337.900, 150.465 337, 150.190 337 C 149.915 337, 150.505 337.900, 151.500 339 M 175.200 338.200 C 173.410 339.990, 173.743 341, 176.122 341 C 177.785 341, 178.003 340.709, 177.131 339.658 C 176.519 338.920, 176.313 338.020, 176.675 337.658 C 177.037 337.296, 177.123 337, 176.867 337 C 176.610 337, 175.860 337.540, 175.200 338.200 M 206.500 338.005 C 204.754 338.759, 204.840 338.850, 207.178 338.722 C 208.651 338.642, 209.637 338.221, 209.369 337.788 C 209.101 337.355, 208.796 337.032, 208.691 337.070 C 208.586 337.109, 207.600 337.529, 206.500 338.005 M 188.442 342.094 C 188.134 342.592, 189.034 343, 190.441 343 C 193.505 343, 193.753 342.430, 191.001 341.711 C 189.902 341.423, 188.750 341.596, 188.442 342.094 M 183.750 351.662 C 184.438 351.940, 185.563 351.940, 186.250 351.662 C 186.938 351.385, 186.375 351.158, 185 351.158 C 183.625 351.158, 183.063 351.385, 183.750 351.662 M 189.750 351.662 C 190.438 351.940, 191.563 351.940, 192.250 351.662 C 192.938 351.385, 192.375 351.158, 191 351.158 C 189.625 351.158, 189.063 351.385, 189.750 351.662" stroke="none" fill="#ebe4d6" fill-rule="evenodd"/></svg>