<svg xmlns="http://www.w3.org/2000/svg" width="370" height="370" viewBox="0 0 370 370" version="1.1"><path d="M 72.999 274.750 L 73 300 90.500 300 L 108 300 108 296.500 L 108 293 95.458 293 L 82.916 293 83.208 285.250 L 83.500 277.500 92.250 277.211 L 101 276.922 101 274 L 101 271.078 92.250 270.789 L 83.500 270.500 83.206 263.250 L 82.912 256 94.956 256 L 107 256 106.999 252.750 L 106.998 249.500 89.999 249.500 L 72.999 249.500 72.999 274.750 M 118.418 249.917 C 118.188 250.146, 118 261.508, 118 275.167 L 118 300 134.063 300 L 150.127 300 149.813 296.750 L 149.500 293.500 138.715 293.216 L 127.930 292.932 128.040 271.252 L 128.150 249.572 123.493 249.536 C 120.932 249.516, 118.648 249.688, 118.418 249.917 M 164.542 251.275 C 153.364 257.606, 149.589 276.911, 156.801 290.862 C 160.626 298.263, 172.401 302.591, 181.807 300.054 C 189.420 298, 198.679 287.309, 194.910 284.923 C 194.134 284.432, 191.819 284.024, 189.763 284.015 C 186.460 284.002, 185.864 284.391, 184.619 287.369 C 182.025 293.577, 175.200 295.929, 170.114 292.367 C 161.765 286.520, 161.945 262.053, 170.375 256.913 C 172.094 255.865, 174.310 255.006, 175.300 255.004 C 178.848 254.996, 182.856 257.961, 184.156 261.553 L 185.447 265.126 190.474 264.450 C 193.238 264.078, 195.644 263.643, 195.820 263.484 C 196.485 262.880, 192.096 255.408, 189.847 253.317 C 186.380 250.091, 182.652 248.998, 175.185 249.016 C 170.125 249.029, 167.538 249.578, 164.542 251.275 M 219.395 250.169 C 218.857 251.040, 202 298.940, 202 299.598 C 202 299.874, 204.561 299.965, 207.692 299.800 L 213.383 299.500 214.771 294.007 C 215.534 290.986, 216.544 288.050, 217.015 287.482 C 217.516 286.878, 221.711 286.540, 227.130 286.668 L 236.389 286.885 238.343 293.443 L 240.298 300 245.649 300 C 248.592 300, 251 299.588, 251 299.085 C 251 297.874, 235.255 252.919, 234.171 251.037 C 233.567 249.987, 231.421 249.564, 226.569 249.537 C 222.851 249.517, 219.623 249.801, 219.395 250.169 M 222.889 267.055 C 220.937 273.628, 219.563 279.230, 219.836 279.503 C 220.339 280.006, 234 280.227, 234 279.733 C 234 279.130, 226.974 255.641, 226.717 255.384 C 226.564 255.230, 224.841 260.483, 222.889 267.055" stroke="none" fill="#000000" fill-rule="evenodd"/><path d="M 261.500 71.100 C 255.450 71.549, 234.075 72.838, 214 73.964 C 158.923 77.053, 142.569 78.163, 141.808 78.864 C 141.080 79.532, 133.869 95.428, 126.439 112.743 L 122.044 122.987 121.058 147.743 C 120.516 161.359, 119.540 185.897, 118.890 202.270 C 118.239 218.644, 118.001 232.335, 118.361 232.694 C 118.720 233.053, 141.848 233.681, 169.757 234.089 C 197.666 234.496, 237.733 235.154, 258.796 235.551 L 297.092 236.271 296.551 227.386 C 296.253 222.499, 295.542 204.775, 294.969 188 C 294.397 171.225, 293.509 147.600, 292.997 135.500 C 292.485 123.400, 291.766 103.713, 291.401 91.750 L 290.736 70 281.618 70.142 C 276.603 70.219, 267.550 70.651, 261.500 71.100 M 173.250 248.716 C 174.762 248.945, 177.238 248.945, 178.750 248.716 C 180.262 248.487, 179.025 248.300, 176 248.300 C 172.975 248.300, 171.738 248.487, 173.250 248.716 M 72.436 274.500 C 72.436 288.800, 72.577 294.511, 72.748 287.191 C 72.919 279.871, 72.918 268.171, 72.747 261.191 C 72.575 254.211, 72.435 260.200, 72.436 274.500 M 84.206 249.741 C 87.895 249.932, 94.195 249.934, 98.206 249.743 C 102.218 249.553, 99.200 249.396, 91.500 249.395 C 83.800 249.393, 80.518 249.549, 84.206 249.741 M 107.150 252.250 L 107 256 94.956 256 L 82.912 256 83.206 263.250 L 83.500 270.500 92.658 271 C 97.695 271.275, 101.605 271.163, 101.349 270.750 C 101.092 270.337, 97.084 270, 92.441 270 L 84 270 84 263.500 L 84 257 95.531 257 C 108.053 257, 108.539 256.774, 107.724 251.334 C 107.367 248.951, 107.276 249.096, 107.150 252.250 M 121.250 249.689 C 122.213 249.941, 123.787 249.941, 124.750 249.689 C 125.713 249.438, 124.925 249.232, 123 249.232 C 121.075 249.232, 120.287 249.438, 121.250 249.689 M 224.269 249.693 C 225.242 249.947, 226.592 249.930, 227.269 249.656 C 227.946 249.382, 227.150 249.175, 225.500 249.195 C 223.850 249.215, 223.296 249.439, 224.269 249.693 M 128.425 272 C 128.425 283.825, 128.569 288.663, 128.746 282.750 C 128.923 276.837, 128.923 267.163, 128.746 261.250 C 128.569 255.338, 128.425 260.175, 128.425 272 M 190.500 254 C 191.495 255.100, 192.535 256, 192.810 256 C 193.085 256, 192.495 255.100, 191.500 254 C 190.505 252.900, 189.465 252, 189.190 252 C 188.915 252, 189.505 252.900, 190.500 254 M 174.269 255.693 C 175.242 255.947, 176.592 255.930, 177.269 255.656 C 177.946 255.382, 177.150 255.175, 175.500 255.195 C 173.850 255.215, 173.296 255.439, 174.269 255.693 M 190.750 264.662 C 191.438 264.940, 192.563 264.940, 193.250 264.662 C 193.938 264.385, 193.375 264.158, 192 264.158 C 190.625 264.158, 190.063 264.385, 190.750 264.662 M 92.500 276.939 L 83.500 277.500 83.432 285.253 L 83.365 293.007 83.725 285.503 L 84.084 278 92.483 278 C 97.102 278, 101.160 277.550, 101.500 277 C 101.840 276.450, 101.979 276.085, 101.809 276.189 C 101.639 276.293, 97.450 276.630, 92.500 276.939 M 227 279 L 220.500 279.655 227.250 279.827 C 231.198 279.928, 234 279.585, 234 279 C 234 278.450, 233.887 278.078, 233.750 278.173 C 233.613 278.268, 230.575 278.640, 227 279 M 185.558 283.907 C 185.249 284.405, 185.898 284.578, 186.999 284.290 C 189.334 283.679, 189.629 283, 187.559 283 C 186.766 283, 185.866 283.408, 185.558 283.907 M 190.405 295.250 L 188.500 297.500 190.750 295.595 C 191.988 294.547, 193 293.535, 193 293.345 C 193 292.545, 192.195 293.136, 190.405 295.250" stroke="none" fill="#d24b2c" fill-rule="evenodd"/><path d="M 0 185.003 L 0 370.005 185.250 369.753 L 370.500 369.500 370.753 184.750 L 371.005 0 185.503 0 L 0 0 0 185.003 M 0.489 185.500 C 0.490 287.250, 0.607 328.727, 0.750 277.671 C 0.893 226.614, 0.893 143.364, 0.750 92.671 C 0.607 41.977, 0.489 83.750, 0.489 185.500 M 261.500 71.100 C 255.450 71.549, 234.075 72.838, 214 73.964 C 158.923 77.053, 142.569 78.163, 141.808 78.864 C 141.080 79.532, 133.869 95.428, 126.439 112.743 L 122.044 122.987 121.058 147.743 C 120.516 161.359, 119.540 185.897, 118.890 202.270 C 118.239 218.644, 118.001 232.335, 118.361 232.694 C 118.720 233.053, 141.848 233.681, 169.757 234.089 C 197.666 234.496, 237.733 235.154, 258.796 235.551 L 297.092 236.271 296.551 227.386 C 296.253 222.499, 295.542 204.775, 294.969 188 C 294.397 171.225, 293.509 147.600, 292.997 135.500 C 292.485 123.400, 291.766 103.713, 291.401 91.750 L 290.736 70 281.618 70.142 C 276.603 70.219, 267.550 70.651, 261.500 71.100 M 167.615 249.411 C 157.411 253.209, 152.415 262.921, 153.210 277.409 C 154.113 293.852, 162.370 301.782, 177.578 300.814 C 182.628 300.493, 184.833 299.792, 188.153 297.454 C 192.348 294.499, 197.706 286.236, 196.265 284.944 C 195.844 284.568, 193.356 283.984, 190.735 283.647 L 185.970 283.034 184.361 287.056 C 180.896 295.716, 171.170 296.175, 166.937 287.877 C 162.589 279.354, 163.685 264.161, 169.033 258.813 C 174.350 253.496, 182.167 255.650, 184.526 263.082 C 184.999 264.574, 186.065 264.997, 189.317 264.985 C 196.060 264.960, 196.852 263.933, 194.254 258.586 C 191.157 252.212, 185.795 248.886, 177.780 248.370 C 173.811 248.114, 170.071 248.497, 167.615 249.411 M 72 274.500 L 72 300 90 300 L 108 300 108 296.500 L 108 293 96 293 L 84 293 84 285.539 L 84 278.078 92.684 277.789 L 101.368 277.500 101.368 274 L 101.368 270.500 92.684 270.211 L 84 269.922 84 263.493 L 84 257.063 95.750 256.782 L 107.500 256.500 107.810 252.750 L 108.121 249 90.060 249 L 72 249 72 274.500 M 118 274.500 L 118 300 134 300 L 150 300 150 296.500 L 150 293 139.500 293 L 129 293 129 271 L 129 249 123.500 249 L 118 249 118 274.500 M 216.655 256.211 C 215.202 260.220, 211.151 271.712, 207.652 281.750 L 201.290 300 207.407 300 L 213.525 300 215.396 293.465 L 217.268 286.931 226.802 287.215 L 236.336 287.500 237.919 293.500 L 239.503 299.500 245.752 299.798 C 249.188 299.961, 251.988 299.961, 251.973 299.798 C 251.957 299.634, 247.962 288.250, 243.094 274.500 L 234.242 249.500 226.770 249.211 L 219.297 248.921 216.655 256.211 M 223.707 265.827 C 222.178 271.147, 220.695 276.400, 220.410 277.500 C 219.926 279.373, 220.310 279.479, 226.447 279.165 C 230.051 278.980, 232.997 278.530, 232.994 278.165 C 232.986 277.327, 227.055 256.722, 226.728 256.395 C 226.595 256.262, 225.236 260.506, 223.707 265.827" stroke="none" fill="#fbfbfb" fill-rule="evenodd"/></svg>